<mxfile host="app.diagrams.net" modified="2024-01-05T19:35:05.722Z" agent="Mozilla/5.0 (Windows NT 10.0; Win64; x64) AppleWebKit/537.36 (KHTML, like Gecko) Chrome/120.0.0.0 Safari/537.36" etag="2AOwJevyCYn6MDTqOExC" version="22.1.17" type="github" pages="3">
  <diagram id="KIgAiZCnuWFbSPegfCu5" name="Page-1">
    <mxGraphModel dx="1632" dy="1104" grid="0" gridSize="10" guides="1" tooltips="1" connect="1" arrows="1" fold="1" page="0" pageScale="1" pageWidth="827" pageHeight="1169" math="0" shadow="0">
      <root>
        <mxCell id="0" />
        <mxCell id="1" parent="0" />
        <mxCell id="2Y-HiYmNz59DvmFgudGI-3" style="edgeStyle=orthogonalEdgeStyle;rounded=0;orthogonalLoop=1;jettySize=auto;html=1;entryX=0;entryY=0.5;entryDx=0;entryDy=0;" parent="1" source="2Y-HiYmNz59DvmFgudGI-1" target="2Y-HiYmNz59DvmFgudGI-2" edge="1">
          <mxGeometry relative="1" as="geometry" />
        </mxCell>
        <mxCell id="2Y-HiYmNz59DvmFgudGI-1" value="" style="shape=image;html=1;verticalAlign=top;verticalLabelPosition=bottom;labelBackgroundColor=#ffffff;imageAspect=0;aspect=fixed;image=https://cdn3.iconfinder.com/data/icons/travelling-icon-set/800/helm-128.png" parent="1" vertex="1">
          <mxGeometry x="50" y="190" width="50" height="50" as="geometry" />
        </mxCell>
        <mxCell id="2Y-HiYmNz59DvmFgudGI-6" style="edgeStyle=orthogonalEdgeStyle;rounded=0;orthogonalLoop=1;jettySize=auto;html=1;" parent="1" source="2Y-HiYmNz59DvmFgudGI-2" target="2Y-HiYmNz59DvmFgudGI-5" edge="1">
          <mxGeometry relative="1" as="geometry" />
        </mxCell>
        <mxCell id="2Y-HiYmNz59DvmFgudGI-2" value="env-flex bundle" style="rounded=1;whiteSpace=wrap;html=1;" parent="1" vertex="1">
          <mxGeometry x="150" y="185" width="170" height="60" as="geometry" />
        </mxCell>
        <mxCell id="2Y-HiYmNz59DvmFgudGI-5" value="" style="sketch=0;html=1;dashed=0;whitespace=wrap;fillColor=#2875E2;strokeColor=#ffffff;points=[[0.005,0.63,0],[0.1,0.2,0],[0.9,0.2,0],[0.5,0,0],[0.995,0.63,0],[0.72,0.99,0],[0.5,1,0],[0.28,0.99,0]];verticalLabelPosition=bottom;align=center;verticalAlign=top;shape=mxgraph.kubernetes.icon;prIcon=master" parent="1" vertex="1">
          <mxGeometry x="379" y="182.5" width="70" height="65" as="geometry" />
        </mxCell>
        <mxCell id="2Y-HiYmNz59DvmFgudGI-7" value="helm repository&lt;br&gt;upstream" style="text;html=1;strokeColor=none;fillColor=none;align=center;verticalAlign=middle;whiteSpace=wrap;rounded=0;" parent="1" vertex="1">
          <mxGeometry x="-30" y="143" width="210" height="30" as="geometry" />
        </mxCell>
        <mxCell id="2Y-HiYmNz59DvmFgudGI-8" value="automatically upgrade in dev/test/staging" style="text;html=1;strokeColor=none;fillColor=none;align=center;verticalAlign=middle;whiteSpace=wrap;rounded=0;" parent="1" vertex="1">
          <mxGeometry x="260" y="140" width="140" height="30" as="geometry" />
        </mxCell>
        <mxCell id="2Y-HiYmNz59DvmFgudGI-13" style="edgeStyle=orthogonalEdgeStyle;rounded=0;orthogonalLoop=1;jettySize=auto;html=1;entryX=0;entryY=0.5;entryDx=0;entryDy=0;" parent="1" source="2Y-HiYmNz59DvmFgudGI-9" target="2Y-HiYmNz59DvmFgudGI-12" edge="1">
          <mxGeometry relative="1" as="geometry" />
        </mxCell>
        <mxCell id="2Y-HiYmNz59DvmFgudGI-9" value="github dispatcher event" style="rounded=1;whiteSpace=wrap;html=1;" parent="1" vertex="1">
          <mxGeometry x="541" y="185.5" width="120" height="60" as="geometry" />
        </mxCell>
        <mxCell id="2Y-HiYmNz59DvmFgudGI-11" value="notification after success" style="text;html=1;strokeColor=none;fillColor=none;align=center;verticalAlign=middle;whiteSpace=wrap;rounded=0;" parent="1" vertex="1">
          <mxGeometry x="420" y="140" width="171" height="30" as="geometry" />
        </mxCell>
        <mxCell id="gpinqIhoWAKsXcfdpxXo-6" style="edgeStyle=orthogonalEdgeStyle;rounded=0;orthogonalLoop=1;jettySize=auto;html=1;" edge="1" parent="1" source="2Y-HiYmNz59DvmFgudGI-12" target="2Y-HiYmNz59DvmFgudGI-16">
          <mxGeometry relative="1" as="geometry">
            <Array as="points">
              <mxPoint x="783" y="297" />
              <mxPoint x="155" y="297" />
            </Array>
          </mxGeometry>
        </mxCell>
        <mxCell id="2Y-HiYmNz59DvmFgudGI-12" value="github actions workflow" style="rounded=1;whiteSpace=wrap;html=1;" parent="1" vertex="1">
          <mxGeometry x="723" y="185" width="120" height="60" as="geometry" />
        </mxCell>
        <mxCell id="2Y-HiYmNz59DvmFgudGI-14" value="trigger pipeline via api" style="text;html=1;strokeColor=none;fillColor=none;align=center;verticalAlign=middle;whiteSpace=wrap;rounded=0;" parent="1" vertex="1">
          <mxGeometry x="649" y="143" width="130" height="30" as="geometry" />
        </mxCell>
        <mxCell id="2Y-HiYmNz59DvmFgudGI-22" style="edgeStyle=orthogonalEdgeStyle;rounded=0;orthogonalLoop=1;jettySize=auto;html=1;entryX=0;entryY=0.5;entryDx=0;entryDy=0;" parent="1" source="2Y-HiYmNz59DvmFgudGI-16" target="2Y-HiYmNz59DvmFgudGI-20" edge="1">
          <mxGeometry relative="1" as="geometry" />
        </mxCell>
        <mxCell id="2Y-HiYmNz59DvmFgudGI-16" value="bump version in env-stable bundle&lt;br&gt;and create PR" style="rounded=1;whiteSpace=wrap;html=1;" parent="1" vertex="1">
          <mxGeometry x="50" y="380" width="210" height="60" as="geometry" />
        </mxCell>
        <mxCell id="2Y-HiYmNz59DvmFgudGI-25" style="edgeStyle=orthogonalEdgeStyle;rounded=0;orthogonalLoop=1;jettySize=auto;html=1;entryX=0;entryY=0.5;entryDx=0;entryDy=0;" parent="1" source="2Y-HiYmNz59DvmFgudGI-20" target="gpinqIhoWAKsXcfdpxXo-1" edge="1">
          <mxGeometry relative="1" as="geometry" />
        </mxCell>
        <mxCell id="2Y-HiYmNz59DvmFgudGI-20" value="Approve PR (Manual)" style="rounded=1;whiteSpace=wrap;html=1;" parent="1" vertex="1">
          <mxGeometry x="339" y="380" width="150" height="60" as="geometry" />
        </mxCell>
        <mxCell id="2Y-HiYmNz59DvmFgudGI-23" value="" style="sketch=0;html=1;dashed=0;whitespace=wrap;fillColor=#2875E2;strokeColor=#ffffff;points=[[0.005,0.63,0],[0.1,0.2,0],[0.9,0.2,0],[0.5,0,0],[0.995,0.63,0],[0.72,0.99,0],[0.5,1,0],[0.28,0.99,0]];verticalLabelPosition=bottom;align=center;verticalAlign=top;shape=mxgraph.kubernetes.icon;prIcon=master" parent="1" vertex="1">
          <mxGeometry x="583" y="375" width="70" height="65" as="geometry" />
        </mxCell>
        <mxCell id="2Y-HiYmNz59DvmFgudGI-26" value="update to stable in production" style="text;html=1;strokeColor=none;fillColor=none;align=center;verticalAlign=middle;whiteSpace=wrap;rounded=0;" parent="1" vertex="1">
          <mxGeometry x="494" y="341" width="210" height="30" as="geometry" />
        </mxCell>
        <mxCell id="gpinqIhoWAKsXcfdpxXo-1" value="" style="shape=image;verticalLabelPosition=bottom;labelBackgroundColor=default;verticalAlign=top;aspect=fixed;imageAspect=0;image=data:image/png,iVBORw0KGgoAAAANSUhEUgAAARgAAAEYCAYAAACHjumMAABBxElEQVR4nOzdC1xUZf4/8Ie5n5kzwAyKDJopMFi5oONMoSkINmOCUqlBCmZKBaWlefkFaW6aZdB6WUvdpBXNFFtYJdPEhILQvAWOQprKRTN1QGWGYc7MmTv/F6n7N0NlhnPmzOV5v16/128X5jzn487wneec81wYHR0dAIIgiAw0qgNAEOS9YIGBIIg0sMBAEEQaBtUBIPelM9hZhZX6V2vqTXE1DeaxAIBAAIA2LIRxUC5B9qfEcv8l5NPtVOeE3JcfvMkLdaX2gjlm5uobXwEABtznZW25MwXpimHIPhdGgzwILDDQn+gM9oD3tmne+7HONAsAwO7GIUZpBGvH0mmB74UGMX53QUTIg8ACA/1BZ7D7FVZiaYWV+vcxvCPMiSZuZCby/56VxP8XCfEgDwULDARaNDb6Gxta9zY1W8f1tK3gQFrl8umCdJmYfZWYdJAngwXGx23c1/5yfin2MQBASGCzmpRY7orZE/xX8bk0+AHzYbDA+KhGlSX8jQ2tX1xrs48k6xwClHZ8daZwZvRA1hmyzgG5N1hgfFBhBfbSxlLdRxjeIXLB6dRT43lrshL5a/hcmt4F54PcCCwwPqRRZen1xobWjdfa7JNcfe6wEMaBdbOCpvUR0K+7+twQdWCB8RG5RW1ZpdX4+xjeEUxhDPPUeN7/LZwc8AmFGSAXggXGyxVV6Z/a+j22UqW2DaU6y20ClPZbxlh0dloC+i3VWSBywQLjpdQ6G5JToPlnTYM5k+os9xI1gLljSVrg3HARE142eSlYYLxQmRIfvfbr9g9VahtpT4iIgiJ+v2Ul8jPTEtADVGeBiAcLjJfJ3qReXn7S+C7VORwVNYD5yepMYY6QT8epzgIRBxYYL1FxCh/z4Vfa9RrM/gjVWZyFIn71syf4Z6fG8UqozgIRAxYYD9eosvCXF7b9o+6iJYvqLESRRrD+s3y6IKOPgG6gOgvUM7DAeLA9Rw0jNpbqvlSpbeFUZyGaAKVdyRiLZqcloNupzgI5DxYYD1Rdb4ooPqh/v1xpnNL5HlKdh0zSCNa+lDjePIUEOU91FshxsMB4mNW7tC9ur9CvBgD0ojqLC9kzE/mvZyXx86kOAjkGFhgPUV1vClu1U7vu/BVrItVZqBIWwqicNYG/IGEIcoLqLFD3wALjAXKL2mYVHzSspzqHm7DLJZy/Z6cEfATXA3Z/sMC4sUaVpX9ekXZlTYM5heos7kYkpJ9YOi1wqkzMhvdm3BgsMG6qqEqfnles3dTNdXF9lSE9gbdo/qSAtVQHgboGC4ybqa43PZZXpP24qdk6nuosniKyL6NqweSAOTIx+xTVWaA/gwXGTVxttQau3d2+olxpfBXuV+Wc0VGcbbOT+bPDRcx2qrNAN8EC4wbKTuBROZs1FQCAIKqzeAE8O8X/xdQ4dCfVQSBYYCh1tdUqWLu7PbtcaZwNAECpzuNFrKOj2BtmJ/t/GC5iXqM6jC+DBYYiZUpcklek3aXB7PfbORHqGVV2SsCM1DgeXAqCIrDAuJhaZ2N9sEP7yY91Rq+ZnOjupBGszQsmB7w7qB8T7tXkYrDAuFDZCXx8zmbNtlubyEOu1TZvov/r08agX1EdxJfAAuMCap2t19qv2xfsPY6/BQDgUJ3Hl0kjWIVLpwW+HRrEuEJ1Fl8ACwzJNu7Tzc4v1b0DAOhLdRboJhTxa06L5+WlxaMFfC4NPtImESwwJKmuN/VdslVTeK3NHkd1FqhrApR2eHWm8IXogazLVGfxVrDAEExnsNPW721fWHzQ8A681+IR7BNikKXLpgmWUx3EG8ECQ6BGleXhrE9a/6vB7DKqs0AO+y13piBFMQz5meog3gQWGALoDHZeYSWWXlipX4LhHf2ozgM5TTs1nrciYyy6TsiH6wETARaYHmrR2Hq/saF1W1OzdSzVWSBiBAfSqpdPF6TDpSB6DhaYHli5Uzt3R6V+JZyc6JVMKbHc92ZP8F/H59L0VIfxVLDAOKGwAksuOICt02D2/lRncYVRj7HBkDAWCBXSQUubDZz93QJ+qDUCq43qZORDEb/fZ0/wfyc1jgd3N3ACLDAOaNHY2Kt3aXPLTxrfojqLK9D8AHh9PB9EhDL/8ruLzRbwyTc64CufnrAQxre5GYJp4SJmG9VZPAksMN1UWIE9XXAAW63B7I9RncVVnh7GAeNk3Hv+/uhZI/hPle/cCxUJ6U3Tn0LnJcqQb/lcmg/033oOFpgHUOtsyPx8dV7dRcubVGdxJRYDgA+mCwCTcf9tl1bt0oLLN3zrb+3WzpMv9RHQTVRncXewwNxHUZV+4vq97XkY3iGmOourvToOBY/1Zz3wdWd/N4ONpZhLMrkZdWYiOjsryR9OnrwPWGC60NlrySnQbKlpMKdSnYUKgx9mglee5nf79V+UY+Bkk5nUTO4qOJBWtm5W0EvhIqaK6izuiEZ1AHeiM9j9ypR4wvSVN5S+Wlz8/AAYM8SxCd+TR3IBm+nVO9je07U2uyJjzQ1lYQU2ieos7gj2YG4pU+KDiqv0a2oazD67c2InmZgF0hMcX72zshYHu4/ipGTyFGEhjGPZqQGZMjG7luos7gIWmJtLKryWX6pb7+s9us4+SM4LASA4gO7wsfaODrD4Cw0w+uaV0p2s6Qm892co0A+EfLrP/3H5dIGpOIVLP/xKu0qD2UdTncUdJMoQMHYY4vTxh04bwc6ffOex9f2IhPSf5z7nP08hQX6iOguVfLbA5Ba1zSg+aNjk672W2wJ5fuC9dEGP21m2vQ206eGW0bfJh3LWZ6cGvOmrvRmf++OqrjdFpnx47fvig4YCX/z338uEJ+49oM4RU0bzAB3+r/o/5SeNs6evvFFVpsSjqM5CBZ/qwazepZ23vUL/AQCAmL8mLyES0MHbKQGEtVdwQAfqLloIa89L2OVDOe/nvSxcRnUQV/KJAlNdb5Ks2qlde/6KNZbqLO6GSQdg3kR/IBISNyG8RWMD/9ipBTZ4pfQXApR2YvGUgLkJQ5BDVGdxBa8uMFdbrejSbW0baxrMaVRncVdPDeUQdnl0p6pfjKDkMLzhey/SCFbRgskB7wzqx2yiOguZvPZqufaCOSZ56bVfYXG5N3+uH4j7Gzm7qHS220fg+ONuX1HTYE5Ny7teW3YCf4bqLGTyuh5Mo8oSnFekXVLTYM4EADx4Mo0PmzaGB6QRbNLar7toBgUHfHKekiNMYSGM/659TbgoNIhxieowRPOqAlNUpR+bV6zdAgAQUZ3F3Q3oQwdznyXuxu69fLK7HVxosZJ+Hi/QPG+i/xvTxqA7qQ5CJK8oMOcuW0JX7dR+WNNgnkF1Fk8xazwfiPv+dSEporW02cDar9sBbvb8z5krRPZl7F4wOWC2TMz2ip0nPb7AlJ3AFTmbNUVwD6LuixAxwOxkf5edr+SwHlT9ApdOcURKLDcrJzUwn+ocPeWxN3mvtlr7ZheoP8vZrCmBxcUxT0udnw7gjDFDOABh+eZsa2cVHzRszFx7Y1OjyjKQ6iw94ZE9mI372p8trNT/C8M74L0WB40azAaTR/Jcft4yJQ72/ezbs62d1DY1njd/4eSAzVQHcYbH9WCKqvTy/FLsa1hcHBfkTwPjH6dmEPOox9igl7/HfdzcQeCOSv3n237AxlEdxBke9Y43qiwB6/e2/5vqHJ4qPooDOBRdqiBsGpg0Es7QcBJ9TUn73nOXPe9yyaMKzNdHDDMwvONhqnN4ouBAGnjyMfLGvHTHow+xwOD+5D+58lL0kp/0s6gO4SiPKjCFFfp3qc7giTr7LFNHo4DmR/2NVkUP1pvxdaU1+BSqMzjKYwpMo8rCAQD0ojqHJxomZoEBfdxjd9uHgxlgJMU9KU+F4R39qM7gKI8pMBrMHkJ1Bk81VuJevYZxUgQE8jzmo+dWypR4z1cFcyGPeZf5iN8NqjN4ookjuCA40L0mHaIIDSTKyJlk6e0UEkRDdQZHeEyBGdSPhQEA4HBQBzwcTAdxUe75h/zEIA54qLd7FT4P4HEzRz2mwHSSSzifUp3Bkyjc7NLobmnxPEDzqE8gtaQRrEKqMzjKo97e9AR0LQCgjeocnqBvEB0Mfti9V6sIETBAzCB4w7e7UmJ5Hjc3yaMKTPRA1uXMRPR9qnN4gkSZe/deblNIOID6h+fuTy7h5CqGITVU53CURxWYTllJ/mvkEk421TncWdQAptv3Xm4ToHQwcjDsxdxPyijuqrwM4TtU53CGxxWYTnkZwo8XTPKfJEBpZ6nO4m5YDAAmj3L9ZMaeeGoo8kdu6M9QxO+3zER06uxkf4/9QvXI2dS3qXU2pOAANmtHpX4JAID85dk8wDMxCEgY4hmXR3c60WgCX36vpzqGu7BPiEHWZiXyl4cGMTzqsfTdPLrA3FZ2Ah+2ukRbfK3NHkZ1FiohLD+wfHogoNM8867G2t1acLHFRnUMSglQ2qUZCjRl2hj0ONVZiOAVBea297ZpFu09hi/31Eu/nnp9PB9EumAZTLLUXzGDDd963FAPothSYrkfTH8KXRMaxNBSHYYoXlVgwM3tSvrNz1d/pcHsI6nO4kr9etHBgkmef5W4cqcWXGn1rV5McCDt5PLpgpdkYnYt1VmI5nXf9NEDWZdLlgQnZSai81DET0V1HldhMz3zsuhuvQJ8anQvNjWet2T7271He2NxAd5YYDrxubT2rCT/fxbM6zVagNJOU50HgrpwJXemYMLCyQEfCPn0dqrDkMUrC8xt4SJmfcmS4KEpsdxlAAAd1XnI1KKxAQz37M2g2w12cP6y92+aPzqK83HZij79FcOQH6nOQjavuwdzL+cuW0JW7dQur2kwv0J1FrL87WEmePlpPtUxnLbrJz04eNp757NKI1i7MpP4c7xlz6Pu8JkCc1tRlf6pvGLtl966++OQgUyQnoACJsNz7smYLB1g91EDOPKr1xaXK/Mm+s+eNgbdTXUQV/O5AgNuDtDr/cGOtkU/1pneAAB43RhSf64f6BvEACjSdZHx8wMgREAHg/oxQaiQvH/+tTZbZ88RXFXbgM3e9ecMN3X88dRIg3n25d29RPZlfL3qVeFcb9x3ujt8ssDcVlSFTc4rbv8CAOBZY+sJNE7KAU9LiV/t/6czRlBy2ABs3lk3ugObN9F//rQx6OdUB6GSTxcYcHOtX/76Pbr1P9YZX6Q6C1VSYrngyUeJW5iqut4Etlf47rB/aQTrqwWTA94Z1I95keosVPP5AnNbmRKPyyvSbtdgdo9bWJkIK18REDbFYE2JFly67luD5W7RZqcEvJQax/O5ey334tWPqR2hkCBVWxf2ksglnLUAACPVeVzt9+tWQtrBcDu4fMPnikuHNIL176JFvQfB4vJnsMDcITSIcSMvQ/jWxjlBUSIhvZrqPK6kw4npyWLGDnCP+7leSYDSahdM8n86f26vV8NFzBaq87gbWGC6IBOzG7Yu7PWEXMJZDADwua9jqHvkQzlryz8KGZKWgJZRncVdwQJzD0I+vSMvQ7hi5SuCJ8JCGBVU54Hch0hIP5qbIXgy72XhW1RncXewwDxAwhDkRPHi4DGZifwsAIDvPnSFOpnTE3iL9y7rM0IhQY5QHcYTeN0gM7JkJfHzw0SMyuIq/aqaBvMEqvNAriUS0s8snRY4RSZm11GdxZPAHowDFBLkfP7cXskpsVyPXIAZco5cwvlo68JeQ2FxcRwsME7ISQ3M3TgnaHBkX8b3VGeByCNAacdXviIYmZchXCTk071/mjcJYIFxkkzMPrMjJ1ienRLwLIr4naM6D0So1sxENLX8o5CYhCHIYarDeDJYYHooNY73TcmSYEnUAOY/qc4C9Zx8KGf7vvf7iLKS/IupzuINYIEhgJBPx7cs6D1vwSR/hUhI9/n5J55IgNKaMxPRrHenBk7vI4CXQ0SBBYZAaQlo+drXhI9HDWBupzoL1H1hIYxvVmcKH8tK8s/nc2lwKAKBYIEhWLiIeWPLgt7TFkzynyBAaU1U54HuDUX8LmWnBKQVLw5+Nnogy6M3OHNXsMCQJC0B/bb8o5Bw+VAOvDfjhqIGMP9dsiQ4KjWOt4PqLN4MFhiS5b0snJebIUgSCelesVOfp+vstSyY5D95y4Ler3rzav7uAhYYF1BIkNId2b3jp8bz3gUAqKnO46O0cgnnox3ZvR9PS0B3UR3GV8CpAi7C59LwhZMDPhw7DPnv/Hz1Vg1mf4LqTL4iOJDWNH9iwPOKYYiS6iy+BvZgXCx6IOtcyZLg4Smx3IUAAHhjkVz2CTHIotLlIeGwuFADFhgK8Lm0jpzUwFVFi3oPDg6k/UB1Hm8kQGmHNs/v9dCyaYKPqM7iy2CBoVC4iKkqXR7yVGYifxYA4BrVebwENjWe90HJkuCk6IGsq1SH8XWwwLiBrCT+v4oW9Y4LDqSdpDqLJxOgtNOb5/catXBywBI+l+bVWwV7Clhg3ES4iHmudHmIJDMRnQMA0FKdx8PoUmK5y0qWBA+NHsg6RXUY6P+DBcbNZCX5f1q2ok/w6CjOeqqzeAJpBOvzwuzekTmpgUv5XBoxWyNAhIEFxg0J+XTz6kzhG7kZgiEClNZAdR43dS07JUCeP7dX5qB+zGaqw0BdgwXGjSkkSO3Whb2ekEawPoO7G/yPJSyE8Z89S4OfSI3jwQW/3BwsMG4uNIihyZ/b6/XcDEEcfNIEdNkp/lOKFwdPCQ1i/EZ1GOjBYIHxEAoJcnjP0mCxXMJZ1/ktTnUeVxsdxfmiaFHvvqlxcJi/J4EFxoOEBjHa8zKEb+bOFIwMDvSNpSAEKO1yboYgdnWmcEa4iAkfPXsYWGA8kGIY8vP2t3tHTY3nfQAA8NonJ9II1vatC3tJFBLkENVZIOfAAuOhhHy6YeHkgCUb5wRFh4UwDlKdh0giIf14boZgWP7cXtNCgxg3qM4DOQ8WGA8nE7N/LV4cHJcSy33dC3aetMklnMVbF/YarpDAyYneABYYL5GTGvjZxjlBYZF9Gd9SncUZYSGM8o1zgmR5GcIVQj69g+o8EDFggfEiMjH7tx05wRPSE3jpApTmKY+07ZmJ/KzixcEKmZgN52J5GVhgvND8SQGFuRmC4dII1gGqs9xPWAijZml64BNZSfx8qrNA5IAFxkvJxOwLuRmCcekJvOnuOAo4JZb7TvHiYFnycG4N1Vkg8sAC48WEfHrH/EkBXxZm935EGsH6muo8nSL7Mr7fOCdocE5qYC7VWSDywQLjAwb1Yzbkz+01ceUrggQBSqulIgOK+J3NTgl4dkdOsFwmZp+hIgPkerDA+JCEIUhl+UchQ+RDOUtded6wEMZ/S5YED0mN433jyvNC1IMFxgflvSxctmCS/3MClEZqT0IkpF/ITgl4vmBer6lCPt1M5rkg9wQLjI9KS0B3b3+7t/TWUhCEixrA3L72NaEsNY63Ey4E5bv8OjrgmCZfV6bER7dobJv692aE97QtDWZv0xvtaWkJaCkx6SBPBgsM9Ic2zP7Y2cvmL80WMMzZNph0cDaiLzO1dwC9jth0kKeCBQb6H7MVoL9fs8y50mrLBgD4O3JsAI+2YVA/5lIOy+86eQkhTwMLDPQXbZh98G/XrO9p9fbnOz8j93ttAI9WFhpEz+4dQIeTE6G/gAUGuqfrWtsT9Zct71tsHU/7+f25zrCZ4McwEXN57wA6XBcXuidYYKAHstqAn0ptfYxJ9wuy2Tva+vZiUDJYD/I8sMBAEEQaOA4GgiDSwAIDQRBpYIGBIIg0sMBAEEQaWGAgCCINLDAQBJEGFhgIgkgDCwwEQaSBBQaCINLAAgNBEGlggYEgiDSwwEAQRBpYYCBCVdebwqrrTY9TnQNyD7DAQITSYPb+WZ+0/rB6l/ZtqrNA1IMFBiIDur1CnzfhvZafypQ47M34MFhgINKo1LYncwo0x7M3qXPVOhv8rPkg+KZDpCs/aczOKdB8V6bEJVRngVwLFhjIJWoazPKcAs2JzLU31jeqLP2ozgO5BiwwXq5MiQ/PXHujpPaCuT/VWcDNQjMrdcX140VV+glUZ4HIR1+61KX7oEMuojPY+e9s1qzb9B22QaW2PbL7iGHOucsW7uORrKMIm0baPtEClHY1OIB++ezvFp7R3DHwHi/j/3TGlFZTbxJH9mP+3Muf3k5WHohacNFvL7TtB0yypQz7rwazh3Xxa1NmIn9SVhJ/H9k5GlWWh/JLdR+UK43PAAAC7/EyU+5MwVOKYchPZOeBXA8WGC/SqLIIt36PLdp7DJ/3oMtfaQTri8wk/scyMfsM2bnOXbYEV9biz9XUm1NqGsxxAADWXS+xyiWcLRlj+X8f1I+pIjsP5DqwwHiJshP4mNUl2i3X2uwPOXCYXT6Us37+pID/6yOgm0iM9z/V9abIqjpj8vYK/SIAgPDO3wlQWvMMBfrqtDHoXldkgcgHC4wXKFPig3MKNMcBAFwnmzC+lx4of2Y416WXKUVV+pGnL5nH7z2GzwAAiG7/XBrB2pmdGvB6uIgJ97n2cLDAeInqetOjeUXaDU3N1nhnjs9M5M/ISuJ/QXyy7mlUWULLlcYp5Up8eFOz9VkAAH10FCd32bTAZXwuzUJVLqhnYIHxMtmb1G+UnzR+6uhxVBeYu237ARtXVWdMb2q2Bq/OFGZGD2T9RnUmyHGwwHihMiUuKa7Sf1zTYJZ39xh3KzC3XW21BlxV2yJDhfTa0CCGS+4TQcSBA+28kEKCKHMzBGPlQzkeP8gpNIihlYnZP8Pi4plggfFSQj69I+9l4bKNc4IiI/sySqjOA/kmWGC8nEzMrt+REzwpN0MQK0BpZ6nOA/kWWGDckFpn89MZ7Bwi21RIkEMlS4JjMhPRV0RCegORbd9JrbOxdAY7/FxBf4BzkdxMYQU2ftGWtr27jxpe7h1IPxQuYrYQ1Tab6WeSidnK5Bjuv4L8aZdaNLYBGszep/N3UjH7a5mYfaqn5zh0xhT72rrWA0fOmEYCAKwMOjAK+fQ2Qv4BkMeBT5HchFpnY87PVxfWXbQ8f8ePrSmjuAtzXghcS9Z5i6r0L+QVaz/JTOS/TcRTpDIlHp9ToKm482dhIYxyqZj135kKfkEfAR2OafEhsMC4gYpT+Jil29s2YXjHgK5+L41gFWanBrxF5sjWq63WwNAgRo97Gl0VmDuJhPQTowazv+3fm3FqnAz5VsinG3t6Tsh9wQJDIbXOJsgr1n5YrjS+3o2X2zMT+c9nJfHd+onQgwrM3QQorTYllvfPMBHjiEKCwJvQXgYWGIoUVemfXb+3fTmGd0Q5clxYCOO/2akBHxBxv4QMjhaYO4mE9FOhQvqF+GjOzsh+zMZBfZkn+FwaHP/iwRhUB/BVZmtHC4Z3hDp6XFOz9fmsT1oVcglnbV6G8D1y0lFDpbYN6fy/mgbzc7d+dFUu4fwQNYC1J+lxZJeQT7dSHBFyEOzBUOjcZUvk7PWtX2gw+3BnjkcRv3MLJwXMTR7O/Y74dM7pSQ/mQQQo7deRg9nfhQoZF+OjOV8P6seE85PcHCwwbmDlTu2bOyr1azvfD2eOF6C0Uxlj0ffTEtBdxKdzDJkFpguYNIL1XWQ/5qkhYaxjwwexf+BzabCX40ZggXETRVX6sXnF2v/cZ2nJ7mjITgnISI3jHSQwmkNcXGD+IjiQduK5Ebx/S8WsKpmYfZqqHNBNsMC4kUaVRZRXpP1nTYM5tSfthIUwDkx8kvtZcgz3Wz6XvAW+u6LW2QKLD+on19SbJ9c0mKMAAFRtUWIXoLSTYSGMJrkE+W+YiHFOJmafpCiLz4IFxg1t+wFLWlPS3nm5w+5JO2EhjMPPjuAunzYG3U9cuu5T62yMmgbz+PIT+Kjyk8Y3AACETn9wwq9yCacqJZb3sUzMbqI4i0+ABcZNnbts6bdqp3ZFTYN5mrP3Zm5DEb/6tHj03/HRnC2D+jGvEZfSMWVKfEiTyppY3vn/m63jAQB8qrIAANqkEawiqZhdmxyD/Cc0iHGDwixeCxYYAqh1NtqWMuzluCjOIZmY/SuRbZedwBPyirWFGsweQkR7UQOYu9LHoKsVEuq3Cam9YB6wvQKbW1NvHqHB7DEUxzmXmchfJZdwvoZrARMHFpgeunP1OBTxu7w0PTA5YQhC6LX+1VZrn7W72xeWK40zAAC9iGhTJKQfHzWYXSSXIN+7w72J6nrTIFWrLeLQGePTl65Zh5y/YpUCAHgURNFKI1jVyTHcd5OHc49ScH6vAguMkxpVlofyirQ5NQ3mWXf9Ck+J5X40e4L/aj6XpifynFdbrX3X7m5/4+hZ08sY3tGbqHYFKO3MnGf95z/jRuNp1Dobp6nZKqmsNQ47f9ky/twVywAM73jUhRE65BJOYUos7+/wfo3zYIFxQlGV/pm8Yu1nd261cbfO6/vl0wVpfQR0G9Hnb1RZQvNLdYvKlcbZRLXprmvy3qmzt6jR2aM3l+mmXmuzP+2i095IT+DNmz8pYJuLzudVYIFxgFpn8/9gh3b5j3XGOd15vQClNS6eEjAzYQhCyriUc5ct4Rv36Zb+WGec1tO2PKHA3G3PUcPoq2pbfE296ZGaBnMymZdUkX0Z+5ZOE7w8qB+zmaxzeCNYYBwwY9X1orqLlhRHj5NLOEuyUwI+FvLppIxJadHYei/Zqllb02B+wdlVCj2xwNytut7Uv/igfk6Tyjq0qdmaQMKKjfp5E/0nThuDlhHcrteCK9o5IC6KU3LpmpX/2zXbCEeOa2q2jilXGmMj+zEPhwYx1ETnQhGaIXk4d6dUzCru/CO4rrWHGM0dQkfaIGpFOyqFBjG0CglyIDWOtzU+mrM9IpS5n0n3w2k0YNZg9uDOz3sPT8E6etb0Yk296dHHHmYeF/LpWoKiey3Yg3FC5tobuTUN5mwnDu28ns+ZPylgEwmx/qdFY2P/WGdMzSvWrgEABHXnGG/owdxPdb0p/OzvlpgtZdibzk4uvYspOyXg5dQ43nYC2vJasAfjhOTh3HIAOi7UNJjHO/ityK27aHmmshaPC+DRToeLmCoy8qEIzTb4YVZtWjxvdR8BvdZo7sBValv0/QbsEdWDKVPi8akrrteVK3GpBrMPalJZGf17M66wmX6E3+x2RGgQQxM9kFU3XY5uSo5BPuEjtAsAgCsqtS3CyRHGjJ/OmCaVK/HHw0QMJRyo1zXYg+mB6nrT33IKNAUazP64M8dH9mWUZjzNf1chQU4Qn+7P1DobbX81PvnUBfPYcuUfN4X/9EdFVA/mXpMdUcTvZKIM2S9A6RfkEs434SL3uVlaXW8Kq6k3T91zzDBGpbaNcaIJy9R43rKMsWgeXLPmz2CBIUD2JvWm8pPGDGePl0awtmSnBswLFzFdsvq+Wmfzyy/V/d+PdcbnrrXZ/7ifRHaB6UJ71ADm9vQx6PdhIYyycBGzvafnJkKjytIrv1T3Tk29eXxnD8zBw3/PnSkYrxiG1JEUz+PAAkMAncHOLKzEphdW6pdjeMc9x8bcD4r4XRr+CHt9xlj+Vlc+Cq2uNw0tV+KjH+vPOv3MH5d+PePkcg2YNIJVzUdov4x7HNknQGlNMjH7XE+z9ETne3r0nCl2/89/9PrGaTB7WDcPbZdLOOvnPuv/j87LMpJjuj2fLjCNKgs/XMTUEdheZOqK69/3cImCa3IJ57PslIBlQj7dTlQ2VyFqPZjgQNqR6IGsU/KhyBrFMOQ8MemcV1Sln5xXrF0JAOhy54e7CVBaY3ZqwGSFBPHoJ3M95ZMFpvMSofigfm5+KbZCGsHav+pV4RSi1k252mr1X7u7fUW50pjVwzWPNSmx3A1yCbJZJmY3EpHNFUhacMoQ2ZfxdXw0UicVs/ZQuZBUmRIfU1yln1LTYH4JAMB60OtHR3E+WzYtcA6fS/PJ/aB8rsA0qiyPpq64XgwAGHz7Z51FZvl0QVIfAZ2w/zHKTuAjV5doC6+12fv3tC35UM7n8mHIak/Y1sNFK9pZw0IYGzOT+LsUEuQHks/VpRaNzW9zmW558UHDWw8aQSxAaedWZwqnRg9kKV2X0D34TIHRGewB6/e2v3HrA/GXGckClFa5fnbQDCIXkm5UWfxLDhv+b0elfj4AgNvD5uyRfRkHJj7JKxg1mF0ZGsRwyyUFXL1kZuelSFgI45RcgvwnTMRQysTseledG9x8j4PLlXh6YaV+zr02zrtFP+EJ5JO5z/mvFPLphA+2dFdeX2B0BrtfYSWWVlipfx/DO+57ow5F/K7NnuCfmRrH201khkaVRbRhj+7tyjrjawSt6qaVRrCOJMdwN0vFrANE7MhIlDIlLssp0PxIQEF1igClVQ8ZyDo6YTjy1ZCBrGOuemysM9jR0mo8cev32Lu3xhzdy5XMRP6HWUn8f7kiF9W8vsBkb1KvKD9pfMeRYzIT0ZlZSf5biM5SdgKPW12i3XytrdtPJLqjWS7h7JEPRfIUwxC3uFfTqLIIm5qtCcVV+lE1DeYMAIA/RVEa5BLO1+kJ6LLogSzMVSfd9gP28pqS9rz7jaIODqRVLp8uSJeJ2VddlYsKXl9gzl229J29vnWvBrMPdeS40VGcD1dnCt8lI1NhBTat4AC2RIPZIwluumlCDPKfwf1Z3yXKkIN8Ls0tnkKdu2wJrqw1Tm5qtgw8etaUiOEdf3N1BpGQ/lNyDHdvcgzyRWgQg5QR1HfSGez+6/e2v1Z80LD4PgVWk5mIzspK8v+K7DxU8foCA27ekOOmf3y9QoPZn3DkuOBA2pF1s4KeCxeRs45tblHbjOKDhvcBAA+R0LxBPpSzSj4M+V4hQX4koX2ntWhsfl8fMTzT1GxJKVcaZQAARwe09UhYCGNbZhL/XwoJcpjsczWqLP45BZrvmpqt95z/FBxI+27drKCscJH3bSTnEwUG3PwW7T17fes2DWYf68hxKOJ3cfYE/7dT43jFZORqVFnQksOG9Mpa4/+p1LZwMs4hEtJ/DRXSf4mP5hRH9mOelonZZ8g4jzN0BrvfuSsWWU29OaKm3vRsU7N14K2pFz1a6Lw7Ivsyjg4JY3058Une3kH9mJfIOo/OYGfccR/w4a5egyJ+v6fF8z5Ii0e38bk0A1lZXM1nCsxtmWtv7KlpME9w9DhpBGtd/txeb5KT6o+xOcx9P+Mz15S0d/Zo+pB1HnDzG/yIVMz6Pulx7urogSy3G21aXW+KvDXz+SUNZn/KBafUyyWcbZmJ/HfDRUzSJi2qdbbe8/PV6++3plBYCKOzN/NiHwHdLZ8SOsrnCozOYKcv+Fz9eU2DeaajxwpQWsPcZ/1nJw/nHiAn3c1vu9JqfGrJYX3K+SvWZLLOc4dmuYRTkhLL2+iO68HoDHZOaTX+9KXrVtn+ajxRg9mHkdi7sYyO4hQkPo58qpAgpA3mK6zAnlu1q33zfXbxNGcmoguzkvw/JSuDq/hcgbmtsAKbsmpXewEAAHH0WGkEqzgziT9PJmZfISfdTWqdzb/gAPbKnmOG1zC8Q0zmuTxlPRidwc4qrcYVpy+ZR1bWGtPudcnRUyIh/fD0p9D1iTLkKzJulqt1NuSDHdp//Fh373WVRUL6sbnP+c9TSJAjRJ/fVXy2wICb80vi84q1xc5uBZISy12ckxq4gvhkf1WmxKX5+3RLmpqtz5LRvqcUmLvVXjD33l6BZddeMI+91maPIrp9AUo7P0OBzps2Bt1HdNudcv/TNqf4kGHN/Zb3zExE38pK8l9LxvnJ5nELTn1z1JD87heaDaMGs/fyuTS8J20Nfph1US7h7D502jQCwztCHT3+zCXLU8UH9ZMZdNDWtxf9LMIm77FwuIipSo3jfSUVs74MFdLPdPa8VGqbCADAJKJ9T10ys4+AblBIkAPTxqD/kopZpQjL74rV1sFu1dn7EXEpZTR3BB09a0rfc8wQKwqinxzYh9lCTPKbRv2NcyxMxPju6FmT3Gzt+pKppsEcB0BHi0zM9ripBh7Vg2nR2OjpH19v1GD2h8NCGN8XLw6WE9GuWmdj5RVrN5QrjS8720ZwIO34TAX/zdQ43nEiMnVHo8oyoFxpTM0v1b3b021YPbUHcy/V9aYn1n3TnlJ30TKPgLV4b7PLJZwN2SkBi4R8OmGz8MHN97J/6orrB+73yH7jnKCBMjH7IpHnJZtH9WC2V2DzfjpjSu38zxrMHlauxB+/1ZMx9aRdhE2zKSTIN3zE7/yRX00JztyX0Rs7+v50xvTqucuWiCB/WlNoEIPQb7quCPn0NpmY/VNWEv8jqZi1J1TIuHxVbeNieIfDy0UQ1YOprjcNXbWz/d2LLdZHAAAqqqYxhAYxrjz3JK8sLZ73EYvp1wgAsKjUtkd72Kvxa2q2PlFy2JDRorFZhgxk/cxm+hHyDS3k07Upsdx/HztrGtCqs3c91aADgIQhiNtsjtcdHtWDkb55tbXzvbjzZ2EhjG83zgl6hqi1U1o0NvYbG1p/bGq29mivZAFK25edGvB3hQSpISKXI1o0Ns7mMt1rNfXmyU3N1lHdOYbEFe1waQSrICWO9230AFZ5HwGdsmULOnvAt2ZAZ939OXKGAKXVrs4UziB6lnR2gXp5udLY1SjyGzWfhhK2o6creEwPRmewM7aUYx/d/XMNZo+8dM368OOR7O8QNq3HE9tQhGZLlCFfmqwdHb9ctAx3dk0Xo7lDXK40ZlbW4iPtdtAuQGnNPe1pdReK0KyjBnOOpsbxNkvFrGJZBLtSh9v9dLi9w2wFwV0dQ1QPpqnZOuDWHtq3MVVq2xPlSmP69gp9Vk29aezpS+beFluHXwCX1tLZe+zpObsLRWgdowZzvk+OQb7kI35nrqptIc709m4zmjv67D5iSNfhdl7UgD96M4SsKaSQIBU63G7+5aLl7jFA3Kwk/jIizuEqHtODqa43hWR90nrPOSRhIYyaD14STCJyRGajytI3r0j7UU2DOb2nm3ihiF+zLIK9bWoCr1gmZrvsPs3dqutNYlWr7dE9xwxTNZg9oqnZKun8oqFgTd5OamkEq0YqZu2QitmnBvVlnnT1/KnqetOwHRX61yrrjC/0ZFKmSEg/Ofc5/3cVEuRborJt3Kebm1+q++edP8vNEAQrJIjHDMLzmAKj1tmYikUt9/2GEKC0c9vf7j2ij4BO6OjUMiX+ZE6BZgcAoMeLR4GbxfDQiEfZK+dPCiB0WQhnVNebBp393SLpE0hvVAxDfu5pez1ZD0aA0qqlYtaPmYn8XDJH1HalRWMLWb1L+175yT+W1HCafChnad7LQsJ6Gat2aWcVVujX3/7vNZ+Gkj6FgkgeU2DAzXswus7OwANe1vpeeuCLzwznlhJ5bp3Bzl6/t/3/SqvxtzC8o1ubmXWDOiWW+8Xg/qyyZILzUoWoBacEKO3kOBmyOz6aUygTs122Jm91vUmSv083p6bBPMPZNsJCGD998NIf+1gTsnD5xn3tc/NLsc6eTFvNp6ECItp0FY+5B9MJM9oZdRctCQ94GffHOuNUzGg3Pvko5yeizs1m+tlGDeZUPTucm3/mN8ugW08kego5c8kyorLOmJ5fqntDb7SbmQy/dk/exKuLezBOMZo7Qn65aInfewx/M79U19megcXwO99HQM7+3reFBjGak4dzd0vFrOLj50zD9MYOh2e6azB7/50/GV7kcfxORg9kNfQ0k0zMPoYZ7eo+gfSrimEIKQP+yOJRBaZPIL2htBp/0Wy9/xqonT2zuosWRU29qa9UzKokakFvcPORtjE+mlP0SH9m6aVr1l6tOvsjBDXNrbtoGbf3GP5quRJPPH3J/DAfoVn4CO0Gm+nnMZt5EVVg7hJY02BO3n3EMLum3vQ4h+2HIyy/Gz0daHk/oUGM60mPI5uDA+i/nv3d8jejucPR0d6co2dN03S4HTz5GKfHy2U8+Sjn+OCHmb/wuTSP2g/boy6RwM3u4mv5pVi3lxsMC2GcXDcraEQfAd1IRp4yJT48r0i7UoPZR5LRvgClXZSKWd+mJ6CrogeyLpBxDiK5cE3eyymx3M9yUgM/dMG5QPYm9UflJ405zhwrjWDl5c/t5dSxns6jejDgZnexGoCO6zUN5qTuDJrSYPaQ7RX6WQB0qGRidi3RecJFzMvT5WiBAKX9cF1r47TqiJ0PYzR3BDY1W5/YfcQwN79U92ZTs2VAk8o6AABwJTSIQehoUqIw6H6mKzdsXKPZuU3ousn/zCXLmJu7MJoGcNh+unARk7RRrophyPeRfRlVP583D+28fHPkWJXaNqpciceMGsz+zpvWeukOj+vB3FZdb/pbZ8+hqdn6dHePEaC0Q4unBMxNGELeXtDnLlseKjmsn1Vajc/AcMc+iE5oi4/i7Ijsx2yQillfy8TsJpLP5xCdwU4/es4Uf6rpj5nP41Rq2wgyz4cifr+lxaPr4qM5mwf1Y7aSdZ6N+9pfzS/F/gEACHAwX/2qV4UTqdzXydU8tsDctnFf+0v5pdj6B+1Ncye5hLM0OyXgH0I+nbRvE7XO5relDEs/8qtpQVOz1aH1gHvAHBbCKMhM4v8QFsKoDBcx3W68xMZ9uvQjvxqfq7toUTj6B+oAc0osd/FMBX9DHwE573GLxobeGvE9zNFjN84JksrEbNK+5NyJxxcYcLM3MzyvSLu8qdna7cmPIiH956XTAufJxGzCnjR1RWew046eM43e/zM+pbrB9ByGd3Q5kpYEhsi+jOr+wQzlqMc434mC6I2ufNz7IFdbrcLTlyxDDp02PlNTbx7zgK0+nCJAaY3jZMimiU9yvwgXMQlfvf9qqxVdu7t9YbnSON+Ryaa3tsd5PjWOd5DoTO7GKwrMbblFbW8XHzTkOXCILWoA86vVmcJXhXw6aU8kbmtUWYRHfjWNX1PSvhQAQOTWJd0iQGknpWLWL9II9r9T43hutRB4mRJ/svwEnlR+0vjAnRKdoE6J5b6Xkxq4juB2/1BUhY3PK27f1Z2tZO9gzkxEx2Yl+bvV+0A0ryow4NZQ+FU7tevOX7E6sri3JiWWmzf9KfSz0CCGSx4DlinxwaeazM/vr8af12B2l2/j0VlcBSitapwMOcxHaKeTY5BvQ4MY7RTk+Is9Rw2xpy+Zk0qr8RcwvGMggU1fXDDJf0laArqNwDb/UHEKj/nwK+1/NJjdkRX21IXZvUcN6sf8leg87sLrCsxtq3dpZ26v0K++z7qnXWmbN9F/cdLjyOdCvutm/TaqLKH5pbql5UpjEgCgr6vO2wWVfCjnM/kw5FD0AFYFkXt1O6vsBK7YXoHNqrtoeaan88FuCwthlC9JC5wVPZBF6DazLRqb3xsbWn9uarZKu3mIOWUUd0HOC+T0rNyB1xYYcLM3M3DptrYtKrUtzpHjREJ6Q1o874NxMuQ/Qj4542e6otbZOKcumGP2V+OK079ZxqjUthii/qiccEUawToTJmKUxzzCPtq/N0MZLmJS9lj83GVLRMlh/fhDp03TVGqbjIAm26bG8z7JGIuuJXKv6KutVuHcz9QbmpqtL9zvdQKUdnTxlIDshCFIFVHndkdeXWBuK6rSp67f274MwzscHXXbEh/F2TE1gbeViuUKG1WW4DO/WWSVtcbUUxfMf9Ng9u5+M5LBHNmXcSyyH3N/cgz3p1Ah/QRV43Cq601D9hz7Yy+pdGeWOr3L1cxEfl5KLPdTIZ+4Htt7X2pm7z2O//Pu5T4EKO1ixlj0g7QEdBNR53JnPlFgwM3eQa/5+eqP6i5aXnHm+LAQxv7MJH62QoIQPlivu8qU+JAWje2JLWXYbA1mH0JVjlta5RLOD2EhzK+ykvi7qAjQqLIIdh8xTN9eoX+/p/tf39rF83kinzZt+wGbsKakfc/t/y6NYO1cPl3wurfsedQdPlNgbqs4hcs//Eq7ToPZndquFEX8lFmJ/PxxMmQrmeNoHkStszH3V+PPnrtiefyn06ZEDUb8ivqOEAnp+5JjuGVyCaeIjEfC96Mz2LmFlfqMwkpsFoZ3OD0JFUX8WrMS+TPSEtC9RGX75qjh2VW7tKtmT/DPTo3j7SSqXU/hcwXmtuxN6tXlJ43zetJGWAjj88wk/laFBDlEXDLndBacLWXYhJY2W0q50jgCADCAqiwClNY4Q4F+POJRdlm4iOnS+VOrd2ln7vsZf1eD2Z0eBiCXcNZnpwS8JeTTPWaSqbvy2QIDbm6+9mzBAeyfGszeoz9GkZB+ctRg9rdyCfINlavV3abW2fyamq1Da+pNUTX15meuqm0DVWqbwyNOCWCSRrAOS8WsPfHRyDeD+jEbXXHSq63WwMJK/Zv7q/FZGszu1HQNkZD+89rXhC+Gi4hZ08VX+XSBAbcWgl6yVePUVrJdCQthHBvxKPubGQr0EyGfjhHRJhFqL5j7nf3dErfvZ8O4uouWFxwcFEYEc9QAZtmIRzmfZCXxSdt69061F8yB675p/7imwfyqk02os1MCpqbG8VyS1xv5fIG5rahKP3b93vaVGN5B1L2MjrAQxuGYR9jfDQljfauQkDfB0hkVtfjg85etE85ftgysrDMmAwB6+jTGEa0TYpDNowZzihSSni/T+SBlSlxa8J0u9/yV7k8luYNZLuH8Iy9D2NUq/9ADwAJzB53BTi+txl/OK9auAAAQtSzmbUZpBKtIKmb/IhWzimRi9m8Et98jV1ut3EOnTU9fum4dVllrHKtS255wxXlRxO/35Bju2olPcvPJHmdTVKV/auv32MfOXC5G9mVU5s/pNd7XllvoKVhgutCosgTmFGgqm5qtZD4K1sqHctbJhyHHpRGsfe54Q3HjPl1yU7MlvVxpfNwVc6fkQzmfp49B86IHski9V5Py4bWCpmarw5fEApR2ePvbvRVkzdD2RrDA3EPnN/rW77HXSqvxdzDc4eUSHdUsjWCdCBMxSuUS5ERYCEPpismX3aUz2FnnrlgklbXG6Jp60wvnr1hlJC61YJNGsHalxPE+HT6IfYTP7fleV10pqtKnrN/bnovhHQ4VTgFKO7d4SkBKwhCkjoxc3gYWmAdoVFn67z5imLm9Qr/IhTdG9dII1oFHHmJWPDuC+2W4iEnJ9qv30qKxsWsvmsdv/wGbUnfRMtHZzekeJCyEUZWdGvCKTMwmdM7QbY0qS/AbG1q3X2uzO3RvJiyEsb94cXAiGZm8DSww3dT5LV5YqZ9WU29KqmkwT+rhHscOQRG/puGPsL8JC2H+JhWz9rnTui46g51ZWo2POX3JnLD3GD4dAED0Mpl2aQRrx9R43pqEIeRsw7typ/atHZX6Nd14KZYSy31n9gT/z121S6engwXGCY0qizC/VLe4pt78jAazR1AQwRQ1gLkn6XHuLqmY9aOrR87eT5kSf6S4Sr+wpsE8kYj9n+8UHEjbtm5W0KJwEfN3ItsFN3NL8oq0pRrM3qer3wtQ2pncDIFcJmbfc3dR6K9ggemBq61W9ulLlpH7f8aTT10wj9JgdiJm+TrKGhbCONa/N+NCTGcvR8RokonZLt9w/26NKgty5jfL6D3HDNPOXbHEYngHIbtioojfjeGPsP8991n/T0ODGIQW1up6k3jB5+qddw5VQBE/TaIMWTP9KbTzfG51qeoJYIEhUHW96ZE9xwwKVattYk2DeRiJN0If5Jo0gnUqsh/zu/hoTnWokH7SVQtpdUVnsHMqa41j9hwzzKxpMMd1dkYIaLZlajxvRcZYdJ2QTydsP2udwR6w4HP1qpoG80y5hPNlSizvXZmYfZmo9n0NLDAk6byMamq2PpW/T5fR1GwdR3GcdrmE850ApR2cqeBvovIxa6PK0vvIr6aUNSXtywAAPX46FxxIq1s+XZAiE7MJHdJfpsSjqZw57y1ggXEBtc7G2F+NJ3ZeKvx02pSswQjbDdIpKOJXHx/NKR7cn1WdKENK+VyayxbVuk1nsDNKq/FJJYf1U89fsT7Xw+bwlFju+tkT/JdQ8W+B7g0WGAo0qizc3UcMr5z93SKvaTCPIWGRa4cEB9KqZir4+Y88xNwXPZClcfX5y07gku0V2Md1Fy3ODOX/HwFKO7c6Uzg1eiDL5YuDQV2DBYZijSoLX4PZJXuOGZ5StdriahrMjwIAunyS4QKGyL6M4/HRnCKpmH3c1TeLK2rxkTsq9G/VNJiTAQBsJ5vRTo3n5WUl8lfyuTSXrasMdQ0WGDej1tk4nb2amnpTVPFBw2wAwENUZaFqZnh1vSlqyVbNJ9fa7PHOtiGNYG1dPl0wwx0WLvdlsMC4uautVrSy1jjx0nVr+KHTpqdUatsoCmLYw0IY5XIJsi8tnve5qyb8VZzCn1q6ve0fGN4hceZ4AUo7nZsheMkdHtv7KlhgPNCtpRbGX1VbH9p7DJ9CxNMYB1jDQhh7Jz7J/XacDNniikmaRVX6yVu/x/7u5O6P9pRY7oLZE/w/5XNpNhLiQfcBC4wXaNHY/DeX6TI1mP2JcqXx6Z4ugO0Au3wo51P5MOQzhQQ5S/bJsgvUS8qVxoXO/PukEawt+XN7EbKoGNR9sMB4mautVv+rapukstY49PxlS1JNg3koQQPb7sce2ZfxXVo8+unIwez9RG7/cbfqepMkr0i7rKnZmtzdY8JCGAeyUwPek4nZR8nKBXUNFhgv16Kx+dVeNI8tV+KjypXG10lYSOtPggNpp2cq+B+kxvG+IvM8uUVtc4oPGtY+6HUpsdz/y0kNXElmFujeYIHxMY0qS79ypXFyZS0+4vwV62SylloAAFyaGs9bkzEWXU/WNrwVp/DYD7/Sft7VFjSRfRn7F0wOeEMmZrtkoXGoa7DA+LiyE3hs+Uk8q1xplJM0/saUEsvNzkzkbyCj0HT20JZs1WypaTBPv/Ujq3woZ0ney8Jcos8FOQ4WGOgPV1ut/qcvWWT7f8aTqxtMiRje4dTGdPciEtJPJMcg/0iLR0uIXkvl5lo92Ct7juHj5j7nv1ghgavNuQtYYKC/0BnstHNXLJI9xwwJZ36zTGxq/mOJTEJW8xMJ6U3JMciKtHi0mM+ltRPRJuS+YIGBHqi63hRVVWd8fnuFPoeoQiNAabXZqQHTFRLkFBHtQe4JFhg3VqbEnyz4TjdNKmar+/dmKEcNZpeGBjEoW2pBZ7AzNpbqZu2vxlM0mJ2QEcWjozhfLpzs/0ZoEAP2ZrwQLDBuTq2z+eUVaf9VftKYBW4+Bq59bgTvszAR47hCQs4atd1RXW+KXPdNe17dRcs4AACnh821zpvo/9y0MSjle3xDxIIFxkOUKfHYtV+3b1SpbY/e/plISK8d1Jd5bNzjyH/792acHtSPecXVuc5dtkQWHNBNO3rW9CKGd/Rkj2+7NIK1OTs1YFG4iHmNwIgQhWCB8SBqnY2VV6x9v1xpzO7i18Zbez/vzUri51OQjZNfqssuPmhY2sOmruXOFExVDEN+ICgaRCFYYDxQxSn8yQ+/0q7RYPZ7bu8qEtLLkmO438olnB2u7BGodbbAggPY3B2V+rcAAIFONtMhl3BWvDslMJfPpblsmQiIeLDAeLCN+9pT8kuxfz9o8h+K+DUmypDCmEHsvQlDkOMuzPdKfin2HgCgnxOHmzMT0blZSf6fkRANchFYYDxco8oSvLywbVfdRcvIbh7SlpnIXyqXcL5w1Y6R2ZvUOeUnjcu6+4g7LIRxaklaoCJ6IOs6+ekgMsEC4wXUOhut+KA+s/igYem9Ng7rQrM0gnVwagJv05CBrB+FfDqpi2VX15ti8oq0i5qarc/c6zUo4ncjLZ73YXIMN5/Kx/EQcWCB8SK1F8yC5YVtW5uarRMcPPR8Six3U05q4MckRfufjft0qfmluh0AANqdPw8OpB1ZNytoSriIeYnsDJDrwALjhYqq9Onr97Z/hOEdjq7nqx8dxdmclsD7J5mzkBtVlt55RdpVNQ3mFwEAxsxE9PWsJP8tZJ0Pog4sMF5KrbP5Z33SuqOp2ZrkzPFRA5jFbzzjv1QmZp8hPt1N237AJjzyEPO0TMy+QNY5IGrBAuPFdAY7UliJpRVW6v/u5N7QJmkEa+/UBN7ahGjkIAkRIS8HC4wPuNpqDV67u/2tcqVxlrP7ZYeFME5OfJL7j+QY7g4+lwY/NFC3wALjQ8pO4MNWl2h3XmuzOz2kXxrBKlk+XZDVR0CHj5ChB4IFxge9t02zeO8xfHnn++9kE/bRUZxPZifzl4SLmHCkLXRPsMD4qLITeEzOZs0XAICerFxnSonlZuakBm4lMBrkRWCB8WFqnU1YcACbv6NSPxcAgDrbTlgI49CsZP4bCdFw8Sjoz2CBgUDtBbNkfr76Sw1mH9yDZmyZifzMrCR+AYHRIA9HozoARL3ogSxlyZLgoSmx3GUAAJ2TzdDPXbYQulA45PlgDwb6k3OXLX027tP9/cc64ysOTE6snDWBvyBhCHKC/ISQJ4EFBupSi8bGXbJVk1/TYE6/z8vwlFHceTkvBG50YTTIg8ACA91XmRJ/orhKn13TYB4PAGADACxhIYwTjz3MPDz9KXRjuIh5juqMkPuCBQbqlhaNjV570fxQWAijOVzEJHVpB8h7wAIDQRBp4FMkCIJIAwsMBEGk+X8BAAD//7bXIWFXqeZ8AAAAAElFTkSuQmCC;" vertex="1" parent="1">
          <mxGeometry x="531" y="385.5" width="49" height="49" as="geometry" />
        </mxCell>
        <mxCell id="gpinqIhoWAKsXcfdpxXo-4" style="edgeStyle=orthogonalEdgeStyle;rounded=0;orthogonalLoop=1;jettySize=auto;html=1;entryX=0;entryY=0.5;entryDx=0;entryDy=0;" edge="1" parent="1" source="gpinqIhoWAKsXcfdpxXo-3" target="2Y-HiYmNz59DvmFgudGI-9">
          <mxGeometry relative="1" as="geometry" />
        </mxCell>
        <mxCell id="gpinqIhoWAKsXcfdpxXo-3" value="" style="shape=image;verticalLabelPosition=bottom;labelBackgroundColor=default;verticalAlign=top;aspect=fixed;imageAspect=0;image=data:image/png,iVBORw0KGgoAAAANSUhEUgAAARgAAAEYCAYAAACHjumMAABBxElEQVR4nOzdC1xUZf4/8Ie5n5kzwAyKDJopMFi5oONMoSkINmOCUqlBCmZKBaWlefkFaW6aZdB6WUvdpBXNFFtYJdPEhILQvAWOQprKRTN1QGWGYc7MmTv/F6n7N0NlhnPmzOV5v16/128X5jzn487wneec81wYHR0dAIIgiAw0qgNAEOS9YIGBIIg0sMBAEEQaBtUBIPelM9hZhZX6V2vqTXE1DeaxAIBAAIA2LIRxUC5B9qfEcv8l5NPtVOeE3JcfvMkLdaX2gjlm5uobXwEABtznZW25MwXpimHIPhdGgzwILDDQn+gM9oD3tmne+7HONAsAwO7GIUZpBGvH0mmB74UGMX53QUTIg8ACA/1BZ7D7FVZiaYWV+vcxvCPMiSZuZCby/56VxP8XCfEgDwULDARaNDb6Gxta9zY1W8f1tK3gQFrl8umCdJmYfZWYdJAngwXGx23c1/5yfin2MQBASGCzmpRY7orZE/xX8bk0+AHzYbDA+KhGlSX8jQ2tX1xrs48k6xwClHZ8daZwZvRA1hmyzgG5N1hgfFBhBfbSxlLdRxjeIXLB6dRT43lrshL5a/hcmt4F54PcCCwwPqRRZen1xobWjdfa7JNcfe6wEMaBdbOCpvUR0K+7+twQdWCB8RG5RW1ZpdX4+xjeEUxhDPPUeN7/LZwc8AmFGSAXggXGyxVV6Z/a+j22UqW2DaU6y20ClPZbxlh0dloC+i3VWSBywQLjpdQ6G5JToPlnTYM5k+os9xI1gLljSVrg3HARE142eSlYYLxQmRIfvfbr9g9VahtpT4iIgiJ+v2Ul8jPTEtADVGeBiAcLjJfJ3qReXn7S+C7VORwVNYD5yepMYY6QT8epzgIRBxYYL1FxCh/z4Vfa9RrM/gjVWZyFIn71syf4Z6fG8UqozgIRAxYYD9eosvCXF7b9o+6iJYvqLESRRrD+s3y6IKOPgG6gOgvUM7DAeLA9Rw0jNpbqvlSpbeFUZyGaAKVdyRiLZqcloNupzgI5DxYYD1Rdb4ooPqh/v1xpnNL5HlKdh0zSCNa+lDjePIUEOU91FshxsMB4mNW7tC9ur9CvBgD0ojqLC9kzE/mvZyXx86kOAjkGFhgPUV1vClu1U7vu/BVrItVZqBIWwqicNYG/IGEIcoLqLFD3wALjAXKL2mYVHzSspzqHm7DLJZy/Z6cEfATXA3Z/sMC4sUaVpX9ekXZlTYM5heos7kYkpJ9YOi1wqkzMhvdm3BgsMG6qqEqfnles3dTNdXF9lSE9gbdo/qSAtVQHgboGC4ybqa43PZZXpP24qdk6nuosniKyL6NqweSAOTIx+xTVWaA/gwXGTVxttQau3d2+olxpfBXuV+Wc0VGcbbOT+bPDRcx2qrNAN8EC4wbKTuBROZs1FQCAIKqzeAE8O8X/xdQ4dCfVQSBYYCh1tdUqWLu7PbtcaZwNAECpzuNFrKOj2BtmJ/t/GC5iXqM6jC+DBYYiZUpcklek3aXB7PfbORHqGVV2SsCM1DgeXAqCIrDAuJhaZ2N9sEP7yY91Rq+ZnOjupBGszQsmB7w7qB8T7tXkYrDAuFDZCXx8zmbNtlubyEOu1TZvov/r08agX1EdxJfAAuMCap2t19qv2xfsPY6/BQDgUJ3Hl0kjWIVLpwW+HRrEuEJ1Fl8ACwzJNu7Tzc4v1b0DAOhLdRboJhTxa06L5+WlxaMFfC4NPtImESwwJKmuN/VdslVTeK3NHkd1FqhrApR2eHWm8IXogazLVGfxVrDAEExnsNPW721fWHzQ8A681+IR7BNikKXLpgmWUx3EG8ECQ6BGleXhrE9a/6vB7DKqs0AO+y13piBFMQz5meog3gQWGALoDHZeYSWWXlipX4LhHf2ozgM5TTs1nrciYyy6TsiH6wETARaYHmrR2Hq/saF1W1OzdSzVWSBiBAfSqpdPF6TDpSB6DhaYHli5Uzt3R6V+JZyc6JVMKbHc92ZP8F/H59L0VIfxVLDAOKGwAksuOICt02D2/lRncYVRj7HBkDAWCBXSQUubDZz93QJ+qDUCq43qZORDEb/fZ0/wfyc1jgd3N3ACLDAOaNHY2Kt3aXPLTxrfojqLK9D8AHh9PB9EhDL/8ruLzRbwyTc64CufnrAQxre5GYJp4SJmG9VZPAksMN1UWIE9XXAAW63B7I9RncVVnh7GAeNk3Hv+/uhZI/hPle/cCxUJ6U3Tn0LnJcqQb/lcmg/033oOFpgHUOtsyPx8dV7dRcubVGdxJRYDgA+mCwCTcf9tl1bt0oLLN3zrb+3WzpMv9RHQTVRncXewwNxHUZV+4vq97XkY3iGmOourvToOBY/1Zz3wdWd/N4ONpZhLMrkZdWYiOjsryR9OnrwPWGC60NlrySnQbKlpMKdSnYUKgx9mglee5nf79V+UY+Bkk5nUTO4qOJBWtm5W0EvhIqaK6izuiEZ1AHeiM9j9ypR4wvSVN5S+Wlz8/AAYM8SxCd+TR3IBm+nVO9je07U2uyJjzQ1lYQU2ieos7gj2YG4pU+KDiqv0a2oazD67c2InmZgF0hMcX72zshYHu4/ipGTyFGEhjGPZqQGZMjG7luos7gIWmJtLKryWX6pb7+s9us4+SM4LASA4gO7wsfaODrD4Cw0w+uaV0p2s6Qm892co0A+EfLrP/3H5dIGpOIVLP/xKu0qD2UdTncUdJMoQMHYY4vTxh04bwc6ffOex9f2IhPSf5z7nP08hQX6iOguVfLbA5Ba1zSg+aNjk672W2wJ5fuC9dEGP21m2vQ206eGW0bfJh3LWZ6cGvOmrvRmf++OqrjdFpnx47fvig4YCX/z338uEJ+49oM4RU0bzAB3+r/o/5SeNs6evvFFVpsSjqM5CBZ/qwazepZ23vUL/AQCAmL8mLyES0MHbKQGEtVdwQAfqLloIa89L2OVDOe/nvSxcRnUQV/KJAlNdb5Ks2qlde/6KNZbqLO6GSQdg3kR/IBISNyG8RWMD/9ipBTZ4pfQXApR2YvGUgLkJQ5BDVGdxBa8uMFdbrejSbW0baxrMaVRncVdPDeUQdnl0p6pfjKDkMLzhey/SCFbRgskB7wzqx2yiOguZvPZqufaCOSZ56bVfYXG5N3+uH4j7Gzm7qHS220fg+ONuX1HTYE5Ny7teW3YCf4bqLGTyuh5Mo8oSnFekXVLTYM4EADx4Mo0PmzaGB6QRbNLar7toBgUHfHKekiNMYSGM/659TbgoNIhxieowRPOqAlNUpR+bV6zdAgAQUZ3F3Q3oQwdznyXuxu69fLK7HVxosZJ+Hi/QPG+i/xvTxqA7qQ5CJK8oMOcuW0JX7dR+WNNgnkF1Fk8xazwfiPv+dSEporW02cDar9sBbvb8z5krRPZl7F4wOWC2TMz2ip0nPb7AlJ3AFTmbNUVwD6LuixAxwOxkf5edr+SwHlT9ApdOcURKLDcrJzUwn+ocPeWxN3mvtlr7ZheoP8vZrCmBxcUxT0udnw7gjDFDOABh+eZsa2cVHzRszFx7Y1OjyjKQ6iw94ZE9mI372p8trNT/C8M74L0WB40azAaTR/Jcft4yJQ72/ezbs62d1DY1njd/4eSAzVQHcYbH9WCKqvTy/FLsa1hcHBfkTwPjH6dmEPOox9igl7/HfdzcQeCOSv3n237AxlEdxBke9Y43qiwB6/e2/5vqHJ4qPooDOBRdqiBsGpg0Es7QcBJ9TUn73nOXPe9yyaMKzNdHDDMwvONhqnN4ouBAGnjyMfLGvHTHow+xwOD+5D+58lL0kp/0s6gO4SiPKjCFFfp3qc7giTr7LFNHo4DmR/2NVkUP1pvxdaU1+BSqMzjKYwpMo8rCAQD0ojqHJxomZoEBfdxjd9uHgxlgJMU9KU+F4R39qM7gKI8pMBrMHkJ1Bk81VuJevYZxUgQE8jzmo+dWypR4z1cFcyGPeZf5iN8NqjN4ookjuCA40L0mHaIIDSTKyJlk6e0UEkRDdQZHeEyBGdSPhQEA4HBQBzwcTAdxUe75h/zEIA54qLd7FT4P4HEzRz2mwHSSSzifUp3Bkyjc7NLobmnxPEDzqE8gtaQRrEKqMzjKo97e9AR0LQCgjeocnqBvEB0Mfti9V6sIETBAzCB4w7e7UmJ5Hjc3yaMKTPRA1uXMRPR9qnN4gkSZe/deblNIOID6h+fuTy7h5CqGITVU53CURxWYTllJ/mvkEk421TncWdQAptv3Xm4ToHQwcjDsxdxPyijuqrwM4TtU53CGxxWYTnkZwo8XTPKfJEBpZ6nO4m5YDAAmj3L9ZMaeeGoo8kdu6M9QxO+3zER06uxkf4/9QvXI2dS3qXU2pOAANmtHpX4JAID85dk8wDMxCEgY4hmXR3c60WgCX36vpzqGu7BPiEHWZiXyl4cGMTzqsfTdPLrA3FZ2Ah+2ukRbfK3NHkZ1FiohLD+wfHogoNM8867G2t1acLHFRnUMSglQ2qUZCjRl2hj0ONVZiOAVBea297ZpFu09hi/31Eu/nnp9PB9EumAZTLLUXzGDDd963FAPothSYrkfTH8KXRMaxNBSHYYoXlVgwM3tSvrNz1d/pcHsI6nO4kr9etHBgkmef5W4cqcWXGn1rV5McCDt5PLpgpdkYnYt1VmI5nXf9NEDWZdLlgQnZSai81DET0V1HldhMz3zsuhuvQJ8anQvNjWet2T7271He2NxAd5YYDrxubT2rCT/fxbM6zVagNJOU50HgrpwJXemYMLCyQEfCPn0dqrDkMUrC8xt4SJmfcmS4KEpsdxlAAAd1XnI1KKxAQz37M2g2w12cP6y92+aPzqK83HZij79FcOQH6nOQjavuwdzL+cuW0JW7dQur2kwv0J1FrL87WEmePlpPtUxnLbrJz04eNp757NKI1i7MpP4c7xlz6Pu8JkCc1tRlf6pvGLtl966++OQgUyQnoACJsNz7smYLB1g91EDOPKr1xaXK/Mm+s+eNgbdTXUQV/O5AgNuDtDr/cGOtkU/1pneAAB43RhSf64f6BvEACjSdZHx8wMgREAHg/oxQaiQvH/+tTZbZ88RXFXbgM3e9ecMN3X88dRIg3n25d29RPZlfL3qVeFcb9x3ujt8ssDcVlSFTc4rbv8CAOBZY+sJNE7KAU9LiV/t/6czRlBy2ABs3lk3ugObN9F//rQx6OdUB6GSTxcYcHOtX/76Pbr1P9YZX6Q6C1VSYrngyUeJW5iqut4Etlf47rB/aQTrqwWTA94Z1I95keosVPP5AnNbmRKPyyvSbtdgdo9bWJkIK18REDbFYE2JFly67luD5W7RZqcEvJQax/O5ey334tWPqR2hkCBVWxf2ksglnLUAACPVeVzt9+tWQtrBcDu4fMPnikuHNIL176JFvQfB4vJnsMDcITSIcSMvQ/jWxjlBUSIhvZrqPK6kw4npyWLGDnCP+7leSYDSahdM8n86f26vV8NFzBaq87gbWGC6IBOzG7Yu7PWEXMJZDADwua9jqHvkQzlryz8KGZKWgJZRncVdwQJzD0I+vSMvQ7hi5SuCJ8JCGBVU54Hch0hIP5qbIXgy72XhW1RncXewwDxAwhDkRPHi4DGZifwsAIDvPnSFOpnTE3iL9y7rM0IhQY5QHcYTeN0gM7JkJfHzw0SMyuIq/aqaBvMEqvNAriUS0s8snRY4RSZm11GdxZPAHowDFBLkfP7cXskpsVyPXIAZco5cwvlo68JeQ2FxcRwsME7ISQ3M3TgnaHBkX8b3VGeByCNAacdXviIYmZchXCTk071/mjcJYIFxkkzMPrMjJ1ienRLwLIr4naM6D0So1sxENLX8o5CYhCHIYarDeDJYYHooNY73TcmSYEnUAOY/qc4C9Zx8KGf7vvf7iLKS/IupzuINYIEhgJBPx7cs6D1vwSR/hUhI9/n5J55IgNKaMxPRrHenBk7vI4CXQ0SBBYZAaQlo+drXhI9HDWBupzoL1H1hIYxvVmcKH8tK8s/nc2lwKAKBYIEhWLiIeWPLgt7TFkzynyBAaU1U54HuDUX8LmWnBKQVLw5+Nnogy6M3OHNXsMCQJC0B/bb8o5Bw+VAOvDfjhqIGMP9dsiQ4KjWOt4PqLN4MFhiS5b0snJebIUgSCelesVOfp+vstSyY5D95y4Ler3rzav7uAhYYF1BIkNId2b3jp8bz3gUAqKnO46O0cgnnox3ZvR9PS0B3UR3GV8CpAi7C59LwhZMDPhw7DPnv/Hz1Vg1mf4LqTL4iOJDWNH9iwPOKYYiS6iy+BvZgXCx6IOtcyZLg4Smx3IUAAHhjkVz2CTHIotLlIeGwuFADFhgK8Lm0jpzUwFVFi3oPDg6k/UB1Hm8kQGmHNs/v9dCyaYKPqM7iy2CBoVC4iKkqXR7yVGYifxYA4BrVebwENjWe90HJkuCk6IGsq1SH8XWwwLiBrCT+v4oW9Y4LDqSdpDqLJxOgtNOb5/catXBywBI+l+bVWwV7Clhg3ES4iHmudHmIJDMRnQMA0FKdx8PoUmK5y0qWBA+NHsg6RXUY6P+DBcbNZCX5f1q2ok/w6CjOeqqzeAJpBOvzwuzekTmpgUv5XBoxWyNAhIEFxg0J+XTz6kzhG7kZgiEClNZAdR43dS07JUCeP7dX5qB+zGaqw0BdgwXGjSkkSO3Whb2ekEawPoO7G/yPJSyE8Z89S4OfSI3jwQW/3BwsMG4uNIihyZ/b6/XcDEEcfNIEdNkp/lOKFwdPCQ1i/EZ1GOjBYIHxEAoJcnjP0mCxXMJZ1/ktTnUeVxsdxfmiaFHvvqlxcJi/J4EFxoOEBjHa8zKEb+bOFIwMDvSNpSAEKO1yboYgdnWmcEa4iAkfPXsYWGA8kGIY8vP2t3tHTY3nfQAA8NonJ9II1vatC3tJFBLkENVZIOfAAuOhhHy6YeHkgCUb5wRFh4UwDlKdh0giIf14boZgWP7cXtNCgxg3qM4DOQ8WGA8nE7N/LV4cHJcSy33dC3aetMklnMVbF/YarpDAyYneABYYL5GTGvjZxjlBYZF9Gd9SncUZYSGM8o1zgmR5GcIVQj69g+o8EDFggfEiMjH7tx05wRPSE3jpApTmKY+07ZmJ/KzixcEKmZgN52J5GVhgvND8SQGFuRmC4dII1gGqs9xPWAijZml64BNZSfx8qrNA5IAFxkvJxOwLuRmCcekJvOnuOAo4JZb7TvHiYFnycG4N1Vkg8sAC48WEfHrH/EkBXxZm935EGsH6muo8nSL7Mr7fOCdocE5qYC7VWSDywQLjAwb1Yzbkz+01ceUrggQBSqulIgOK+J3NTgl4dkdOsFwmZp+hIgPkerDA+JCEIUhl+UchQ+RDOUtded6wEMZ/S5YED0mN433jyvNC1IMFxgflvSxctmCS/3MClEZqT0IkpF/ITgl4vmBer6lCPt1M5rkg9wQLjI9KS0B3b3+7t/TWUhCEixrA3L72NaEsNY63Ey4E5bv8OjrgmCZfV6bER7dobJv692aE97QtDWZv0xvtaWkJaCkx6SBPBgsM9Ic2zP7Y2cvmL80WMMzZNph0cDaiLzO1dwC9jth0kKeCBQb6H7MVoL9fs8y50mrLBgD4O3JsAI+2YVA/5lIOy+86eQkhTwMLDPQXbZh98G/XrO9p9fbnOz8j93ttAI9WFhpEz+4dQIeTE6G/gAUGuqfrWtsT9Zct71tsHU/7+f25zrCZ4McwEXN57wA6XBcXuidYYKAHstqAn0ptfYxJ9wuy2Tva+vZiUDJYD/I8sMBAEEQaOA4GgiDSwAIDQRBpYIGBIIg0sMBAEEQaWGAgCCINLDAQBJEGFhgIgkgDCwwEQaSBBQaCINLAAgNBEGlggYEgiDSwwEAQRBpYYCBCVdebwqrrTY9TnQNyD7DAQITSYPb+WZ+0/rB6l/ZtqrNA1IMFBiIDur1CnzfhvZafypQ47M34MFhgINKo1LYncwo0x7M3qXPVOhv8rPkg+KZDpCs/aczOKdB8V6bEJVRngVwLFhjIJWoazPKcAs2JzLU31jeqLP2ozgO5BiwwXq5MiQ/PXHujpPaCuT/VWcDNQjMrdcX140VV+glUZ4HIR1+61KX7oEMuojPY+e9s1qzb9B22QaW2PbL7iGHOucsW7uORrKMIm0baPtEClHY1OIB++ezvFp7R3DHwHi/j/3TGlFZTbxJH9mP+3Muf3k5WHohacNFvL7TtB0yypQz7rwazh3Xxa1NmIn9SVhJ/H9k5GlWWh/JLdR+UK43PAAAC7/EyU+5MwVOKYchPZOeBXA8WGC/SqLIIt36PLdp7DJ/3oMtfaQTri8wk/scyMfsM2bnOXbYEV9biz9XUm1NqGsxxAADWXS+xyiWcLRlj+X8f1I+pIjsP5DqwwHiJshP4mNUl2i3X2uwPOXCYXT6Us37+pID/6yOgm0iM9z/V9abIqjpj8vYK/SIAgPDO3wlQWvMMBfrqtDHoXldkgcgHC4wXKFPig3MKNMcBAFwnmzC+lx4of2Y416WXKUVV+pGnL5nH7z2GzwAAiG7/XBrB2pmdGvB6uIgJ97n2cLDAeInqetOjeUXaDU3N1nhnjs9M5M/ISuJ/QXyy7mlUWULLlcYp5Up8eFOz9VkAAH10FCd32bTAZXwuzUJVLqhnYIHxMtmb1G+UnzR+6uhxVBeYu237ARtXVWdMb2q2Bq/OFGZGD2T9RnUmyHGwwHihMiUuKa7Sf1zTYJZ39xh3KzC3XW21BlxV2yJDhfTa0CCGS+4TQcSBA+28kEKCKHMzBGPlQzkeP8gpNIihlYnZP8Pi4plggfFSQj69I+9l4bKNc4IiI/sySqjOA/kmWGC8nEzMrt+REzwpN0MQK0BpZ6nOA/kWWGDckFpn89MZ7Bwi21RIkEMlS4JjMhPRV0RCegORbd9JrbOxdAY7/FxBf4BzkdxMYQU2ftGWtr27jxpe7h1IPxQuYrYQ1Tab6WeSidnK5Bjuv4L8aZdaNLYBGszep/N3UjH7a5mYfaqn5zh0xhT72rrWA0fOmEYCAKwMOjAK+fQ2Qv4BkMeBT5HchFpnY87PVxfWXbQ8f8ePrSmjuAtzXghcS9Z5i6r0L+QVaz/JTOS/TcRTpDIlHp9ToKm482dhIYxyqZj135kKfkEfAR2OafEhsMC4gYpT+Jil29s2YXjHgK5+L41gFWanBrxF5sjWq63WwNAgRo97Gl0VmDuJhPQTowazv+3fm3FqnAz5VsinG3t6Tsh9wQJDIbXOJsgr1n5YrjS+3o2X2zMT+c9nJfHd+onQgwrM3QQorTYllvfPMBHjiEKCwJvQXgYWGIoUVemfXb+3fTmGd0Q5clxYCOO/2akBHxBxv4QMjhaYO4mE9FOhQvqF+GjOzsh+zMZBfZkn+FwaHP/iwRhUB/BVZmtHC4Z3hDp6XFOz9fmsT1oVcglnbV6G8D1y0lFDpbYN6fy/mgbzc7d+dFUu4fwQNYC1J+lxZJeQT7dSHBFyEOzBUOjcZUvk7PWtX2gw+3BnjkcRv3MLJwXMTR7O/Y74dM7pSQ/mQQQo7deRg9nfhQoZF+OjOV8P6seE85PcHCwwbmDlTu2bOyr1azvfD2eOF6C0Uxlj0ffTEtBdxKdzDJkFpguYNIL1XWQ/5qkhYaxjwwexf+BzabCX40ZggXETRVX6sXnF2v/cZ2nJ7mjITgnISI3jHSQwmkNcXGD+IjiQduK5Ebx/S8WsKpmYfZqqHNBNsMC4kUaVRZRXpP1nTYM5tSfthIUwDkx8kvtZcgz3Wz6XvAW+u6LW2QKLD+on19SbJ9c0mKMAAFRtUWIXoLSTYSGMJrkE+W+YiHFOJmafpCiLz4IFxg1t+wFLWlPS3nm5w+5JO2EhjMPPjuAunzYG3U9cuu5T62yMmgbz+PIT+Kjyk8Y3AACETn9wwq9yCacqJZb3sUzMbqI4i0+ABcZNnbts6bdqp3ZFTYN5mrP3Zm5DEb/6tHj03/HRnC2D+jGvEZfSMWVKfEiTyppY3vn/m63jAQB8qrIAANqkEawiqZhdmxyD/Cc0iHGDwixeCxYYAqh1NtqWMuzluCjOIZmY/SuRbZedwBPyirWFGsweQkR7UQOYu9LHoKsVEuq3Cam9YB6wvQKbW1NvHqHB7DEUxzmXmchfJZdwvoZrARMHFpgeunP1OBTxu7w0PTA5YQhC6LX+1VZrn7W72xeWK40zAAC9iGhTJKQfHzWYXSSXIN+7w72J6nrTIFWrLeLQGePTl65Zh5y/YpUCAHgURNFKI1jVyTHcd5OHc49ScH6vAguMkxpVlofyirQ5NQ3mWXf9Ck+J5X40e4L/aj6XpifynFdbrX3X7m5/4+hZ08sY3tGbqHYFKO3MnGf95z/jRuNp1Dobp6nZKqmsNQ47f9ky/twVywAM73jUhRE65BJOYUos7+/wfo3zYIFxQlGV/pm8Yu1nd261cbfO6/vl0wVpfQR0G9Hnb1RZQvNLdYvKlcbZRLXprmvy3qmzt6jR2aM3l+mmXmuzP+2i095IT+DNmz8pYJuLzudVYIFxgFpn8/9gh3b5j3XGOd15vQClNS6eEjAzYQhCyriUc5ct4Rv36Zb+WGec1tO2PKHA3G3PUcPoq2pbfE296ZGaBnMymZdUkX0Z+5ZOE7w8qB+zmaxzeCNYYBwwY9X1orqLlhRHj5NLOEuyUwI+FvLppIxJadHYei/Zqllb02B+wdlVCj2xwNytut7Uv/igfk6Tyjq0qdmaQMKKjfp5E/0nThuDlhHcrteCK9o5IC6KU3LpmpX/2zXbCEeOa2q2jilXGmMj+zEPhwYx1ETnQhGaIXk4d6dUzCru/CO4rrWHGM0dQkfaIGpFOyqFBjG0CglyIDWOtzU+mrM9IpS5n0n3w2k0YNZg9uDOz3sPT8E6etb0Yk296dHHHmYeF/LpWoKiey3Yg3FC5tobuTUN5mwnDu28ns+ZPylgEwmx/qdFY2P/WGdMzSvWrgEABHXnGG/owdxPdb0p/OzvlpgtZdibzk4uvYspOyXg5dQ43nYC2vJasAfjhOTh3HIAOi7UNJjHO/ityK27aHmmshaPC+DRToeLmCoy8qEIzTb4YVZtWjxvdR8BvdZo7sBValv0/QbsEdWDKVPi8akrrteVK3GpBrMPalJZGf17M66wmX6E3+x2RGgQQxM9kFU3XY5uSo5BPuEjtAsAgCsqtS3CyRHGjJ/OmCaVK/HHw0QMJRyo1zXYg+mB6nrT33IKNAUazP64M8dH9mWUZjzNf1chQU4Qn+7P1DobbX81PvnUBfPYcuUfN4X/9EdFVA/mXpMdUcTvZKIM2S9A6RfkEs434SL3uVlaXW8Kq6k3T91zzDBGpbaNcaIJy9R43rKMsWgeXLPmz2CBIUD2JvWm8pPGDGePl0awtmSnBswLFzFdsvq+Wmfzyy/V/d+PdcbnrrXZ/7ifRHaB6UJ71ADm9vQx6PdhIYyycBGzvafnJkKjytIrv1T3Tk29eXxnD8zBw3/PnSkYrxiG1JEUz+PAAkMAncHOLKzEphdW6pdjeMc9x8bcD4r4XRr+CHt9xlj+Vlc+Cq2uNw0tV+KjH+vPOv3MH5d+PePkcg2YNIJVzUdov4x7HNknQGlNMjH7XE+z9ETne3r0nCl2/89/9PrGaTB7WDcPbZdLOOvnPuv/j87LMpJjuj2fLjCNKgs/XMTUEdheZOqK69/3cImCa3IJ57PslIBlQj7dTlQ2VyFqPZjgQNqR6IGsU/KhyBrFMOQ8MemcV1Sln5xXrF0JAOhy54e7CVBaY3ZqwGSFBPHoJ3M95ZMFpvMSofigfm5+KbZCGsHav+pV4RSi1k252mr1X7u7fUW50pjVwzWPNSmx3A1yCbJZJmY3EpHNFUhacMoQ2ZfxdXw0UicVs/ZQuZBUmRIfU1yln1LTYH4JAMB60OtHR3E+WzYtcA6fS/PJ/aB8rsA0qiyPpq64XgwAGHz7Z51FZvl0QVIfAZ2w/zHKTuAjV5doC6+12fv3tC35UM7n8mHIak/Y1sNFK9pZw0IYGzOT+LsUEuQHks/VpRaNzW9zmW558UHDWw8aQSxAaedWZwqnRg9kKV2X0D34TIHRGewB6/e2v3HrA/GXGckClFa5fnbQDCIXkm5UWfxLDhv+b0elfj4AgNvD5uyRfRkHJj7JKxg1mF0ZGsRwyyUFXL1kZuelSFgI45RcgvwnTMRQysTseledG9x8j4PLlXh6YaV+zr02zrtFP+EJ5JO5z/mvFPLphA+2dFdeX2B0BrtfYSWWVlipfx/DO+57ow5F/K7NnuCfmRrH201khkaVRbRhj+7tyjrjawSt6qaVRrCOJMdwN0vFrANE7MhIlDIlLssp0PxIQEF1igClVQ8ZyDo6YTjy1ZCBrGOuemysM9jR0mo8cev32Lu3xhzdy5XMRP6HWUn8f7kiF9W8vsBkb1KvKD9pfMeRYzIT0ZlZSf5biM5SdgKPW12i3XytrdtPJLqjWS7h7JEPRfIUwxC3uFfTqLIIm5qtCcVV+lE1DeYMAIA/RVEa5BLO1+kJ6LLogSzMVSfd9gP28pqS9rz7jaIODqRVLp8uSJeJ2VddlYsKXl9gzl229J29vnWvBrMPdeS40VGcD1dnCt8lI1NhBTat4AC2RIPZIwluumlCDPKfwf1Z3yXKkIN8Ls0tnkKdu2wJrqw1Tm5qtgw8etaUiOEdf3N1BpGQ/lNyDHdvcgzyRWgQg5QR1HfSGez+6/e2v1Z80LD4PgVWk5mIzspK8v+K7DxU8foCA27ekOOmf3y9QoPZn3DkuOBA2pF1s4KeCxeRs45tblHbjOKDhvcBAA+R0LxBPpSzSj4M+V4hQX4koX2ntWhsfl8fMTzT1GxJKVcaZQAARwe09UhYCGNbZhL/XwoJcpjsczWqLP45BZrvmpqt95z/FBxI+27drKCscJH3bSTnEwUG3PwW7T17fes2DWYf68hxKOJ3cfYE/7dT43jFZORqVFnQksOG9Mpa4/+p1LZwMs4hEtJ/DRXSf4mP5hRH9mOelonZZ8g4jzN0BrvfuSsWWU29OaKm3vRsU7N14K2pFz1a6Lw7Ivsyjg4JY3058Une3kH9mJfIOo/OYGfccR/w4a5egyJ+v6fF8z5Ii0e38bk0A1lZXM1nCsxtmWtv7KlpME9w9DhpBGtd/txeb5KT6o+xOcx9P+Mz15S0d/Zo+pB1HnDzG/yIVMz6Pulx7urogSy3G21aXW+KvDXz+SUNZn/KBafUyyWcbZmJ/HfDRUzSJi2qdbbe8/PV6++3plBYCKOzN/NiHwHdLZ8SOsrnCozOYKcv+Fz9eU2DeaajxwpQWsPcZ/1nJw/nHiAn3c1vu9JqfGrJYX3K+SvWZLLOc4dmuYRTkhLL2+iO68HoDHZOaTX+9KXrVtn+ajxRg9mHkdi7sYyO4hQkPo58qpAgpA3mK6zAnlu1q33zfXbxNGcmoguzkvw/JSuDq/hcgbmtsAKbsmpXewEAAHH0WGkEqzgziT9PJmZfISfdTWqdzb/gAPbKnmOG1zC8Q0zmuTxlPRidwc4qrcYVpy+ZR1bWGtPudcnRUyIh/fD0p9D1iTLkKzJulqt1NuSDHdp//Fh373WVRUL6sbnP+c9TSJAjRJ/fVXy2wICb80vi84q1xc5uBZISy12ckxq4gvhkf1WmxKX5+3RLmpqtz5LRvqcUmLvVXjD33l6BZddeMI+91maPIrp9AUo7P0OBzps2Bt1HdNudcv/TNqf4kGHN/Zb3zExE38pK8l9LxvnJ5nELTn1z1JD87heaDaMGs/fyuTS8J20Nfph1US7h7D502jQCwztCHT3+zCXLU8UH9ZMZdNDWtxf9LMIm77FwuIipSo3jfSUVs74MFdLPdPa8VGqbCADAJKJ9T10ys4+AblBIkAPTxqD/kopZpQjL74rV1sFu1dn7EXEpZTR3BB09a0rfc8wQKwqinxzYh9lCTPKbRv2NcyxMxPju6FmT3Gzt+pKppsEcB0BHi0zM9ripBh7Vg2nR2OjpH19v1GD2h8NCGN8XLw6WE9GuWmdj5RVrN5QrjS8720ZwIO34TAX/zdQ43nEiMnVHo8oyoFxpTM0v1b3b021YPbUHcy/V9aYn1n3TnlJ30TKPgLV4b7PLJZwN2SkBi4R8OmGz8MHN97J/6orrB+73yH7jnKCBMjH7IpHnJZtH9WC2V2DzfjpjSu38zxrMHlauxB+/1ZMx9aRdhE2zKSTIN3zE7/yRX00JztyX0Rs7+v50xvTqucuWiCB/WlNoEIPQb7quCPn0NpmY/VNWEv8jqZi1J1TIuHxVbeNieIfDy0UQ1YOprjcNXbWz/d2LLdZHAAAqqqYxhAYxrjz3JK8sLZ73EYvp1wgAsKjUtkd72Kvxa2q2PlFy2JDRorFZhgxk/cxm+hHyDS3k07Upsdx/HztrGtCqs3c91aADgIQhiNtsjtcdHtWDkb55tbXzvbjzZ2EhjG83zgl6hqi1U1o0NvYbG1p/bGq29mivZAFK25edGvB3hQSpISKXI1o0Ns7mMt1rNfXmyU3N1lHdOYbEFe1waQSrICWO9230AFZ5HwGdsmULOnvAt2ZAZ939OXKGAKXVrs4UziB6lnR2gXp5udLY1SjyGzWfhhK2o6creEwPRmewM7aUYx/d/XMNZo+8dM368OOR7O8QNq3HE9tQhGZLlCFfmqwdHb9ctAx3dk0Xo7lDXK40ZlbW4iPtdtAuQGnNPe1pdReK0KyjBnOOpsbxNkvFrGJZBLtSh9v9dLi9w2wFwV0dQ1QPpqnZOuDWHtq3MVVq2xPlSmP69gp9Vk29aezpS+beFluHXwCX1tLZe+zpObsLRWgdowZzvk+OQb7kI35nrqptIc709m4zmjv67D5iSNfhdl7UgD96M4SsKaSQIBU63G7+5aLl7jFA3Kwk/jIizuEqHtODqa43hWR90nrPOSRhIYyaD14STCJyRGajytI3r0j7UU2DOb2nm3ihiF+zLIK9bWoCr1gmZrvsPs3dqutNYlWr7dE9xwxTNZg9oqnZKun8oqFgTd5OamkEq0YqZu2QitmnBvVlnnT1/KnqetOwHRX61yrrjC/0ZFKmSEg/Ofc5/3cVEuRborJt3Kebm1+q++edP8vNEAQrJIjHDMLzmAKj1tmYikUt9/2GEKC0c9vf7j2ij4BO6OjUMiX+ZE6BZgcAoMeLR4GbxfDQiEfZK+dPCiB0WQhnVNebBp393SLpE0hvVAxDfu5pez1ZD0aA0qqlYtaPmYn8XDJH1HalRWMLWb1L+175yT+W1HCafChnad7LQsJ6Gat2aWcVVujX3/7vNZ+Gkj6FgkgeU2DAzXswus7OwANe1vpeeuCLzwznlhJ5bp3Bzl6/t/3/SqvxtzC8o1ubmXWDOiWW+8Xg/qyyZILzUoWoBacEKO3kOBmyOz6aUygTs122Jm91vUmSv083p6bBPMPZNsJCGD998NIf+1gTsnD5xn3tc/NLsc6eTFvNp6ECItp0FY+5B9MJM9oZdRctCQ94GffHOuNUzGg3Pvko5yeizs1m+tlGDeZUPTucm3/mN8ugW08kego5c8kyorLOmJ5fqntDb7SbmQy/dk/exKuLezBOMZo7Qn65aInfewx/M79U19megcXwO99HQM7+3reFBjGak4dzd0vFrOLj50zD9MYOh2e6azB7/50/GV7kcfxORg9kNfQ0k0zMPoYZ7eo+gfSrimEIKQP+yOJRBaZPIL2htBp/0Wy9/xqonT2zuosWRU29qa9UzKokakFvcPORtjE+mlP0SH9m6aVr1l6tOvsjBDXNrbtoGbf3GP5quRJPPH3J/DAfoVn4CO0Gm+nnMZt5EVVg7hJY02BO3n3EMLum3vQ4h+2HIyy/Gz0daHk/oUGM60mPI5uDA+i/nv3d8jejucPR0d6co2dN03S4HTz5GKfHy2U8+Sjn+OCHmb/wuTSP2g/boy6RwM3u4mv5pVi3lxsMC2GcXDcraEQfAd1IRp4yJT48r0i7UoPZR5LRvgClXZSKWd+mJ6CrogeyLpBxDiK5cE3eyymx3M9yUgM/dMG5QPYm9UflJ405zhwrjWDl5c/t5dSxns6jejDgZnexGoCO6zUN5qTuDJrSYPaQ7RX6WQB0qGRidi3RecJFzMvT5WiBAKX9cF1r47TqiJ0PYzR3BDY1W5/YfcQwN79U92ZTs2VAk8o6AABwJTSIQehoUqIw6H6mKzdsXKPZuU3ousn/zCXLmJu7MJoGcNh+unARk7RRrophyPeRfRlVP583D+28fHPkWJXaNqpciceMGsz+zpvWeukOj+vB3FZdb/pbZ8+hqdn6dHePEaC0Q4unBMxNGELeXtDnLlseKjmsn1Vajc/AcMc+iE5oi4/i7Ijsx2yQillfy8TsJpLP5xCdwU4/es4Uf6rpj5nP41Rq2wgyz4cifr+lxaPr4qM5mwf1Y7aSdZ6N+9pfzS/F/gEACHAwX/2qV4UTqdzXydU8tsDctnFf+0v5pdj6B+1Ncye5hLM0OyXgH0I+nbRvE7XO5relDEs/8qtpQVOz1aH1gHvAHBbCKMhM4v8QFsKoDBcx3W68xMZ9uvQjvxqfq7toUTj6B+oAc0osd/FMBX9DHwE573GLxobeGvE9zNFjN84JksrEbNK+5NyJxxcYcLM3MzyvSLu8qdna7cmPIiH956XTAufJxGzCnjR1RWew046eM43e/zM+pbrB9ByGd3Q5kpYEhsi+jOr+wQzlqMc434mC6I2ufNz7IFdbrcLTlyxDDp02PlNTbx7zgK0+nCJAaY3jZMimiU9yvwgXMQlfvf9qqxVdu7t9YbnSON+Ryaa3tsd5PjWOd5DoTO7GKwrMbblFbW8XHzTkOXCILWoA86vVmcJXhXw6aU8kbmtUWYRHfjWNX1PSvhQAQOTWJd0iQGknpWLWL9II9r9T43hutRB4mRJ/svwEnlR+0vjAnRKdoE6J5b6Xkxq4juB2/1BUhY3PK27f1Z2tZO9gzkxEx2Yl+bvV+0A0ryow4NZQ+FU7tevOX7E6sri3JiWWmzf9KfSz0CCGSx4DlinxwaeazM/vr8af12B2l2/j0VlcBSitapwMOcxHaKeTY5BvQ4MY7RTk+Is9Rw2xpy+Zk0qr8RcwvGMggU1fXDDJf0laArqNwDb/UHEKj/nwK+1/NJjdkRX21IXZvUcN6sf8leg87sLrCsxtq3dpZ26v0K++z7qnXWmbN9F/cdLjyOdCvutm/TaqLKH5pbql5UpjEgCgr6vO2wWVfCjnM/kw5FD0AFYFkXt1O6vsBK7YXoHNqrtoeaan88FuCwthlC9JC5wVPZBF6DazLRqb3xsbWn9uarZKu3mIOWUUd0HOC+T0rNyB1xYYcLM3M3DptrYtKrUtzpHjREJ6Q1o874NxMuQ/Qj4542e6otbZOKcumGP2V+OK079ZxqjUthii/qiccEUawToTJmKUxzzCPtq/N0MZLmJS9lj83GVLRMlh/fhDp03TVGqbjIAm26bG8z7JGIuuJXKv6KutVuHcz9QbmpqtL9zvdQKUdnTxlIDshCFIFVHndkdeXWBuK6rSp67f274MwzscHXXbEh/F2TE1gbeViuUKG1WW4DO/WWSVtcbUUxfMf9Ng9u5+M5LBHNmXcSyyH3N/cgz3p1Ah/QRV43Cq601D9hz7Yy+pdGeWOr3L1cxEfl5KLPdTIZ+4Htt7X2pm7z2O//Pu5T4EKO1ixlj0g7QEdBNR53JnPlFgwM3eQa/5+eqP6i5aXnHm+LAQxv7MJH62QoIQPlivu8qU+JAWje2JLWXYbA1mH0JVjlta5RLOD2EhzK+ykvi7qAjQqLIIdh8xTN9eoX+/p/tf39rF83kinzZt+wGbsKakfc/t/y6NYO1cPl3wurfsedQdPlNgbqs4hcs//Eq7ToPZndquFEX8lFmJ/PxxMmQrmeNoHkStszH3V+PPnrtiefyn06ZEDUb8ivqOEAnp+5JjuGVyCaeIjEfC96Mz2LmFlfqMwkpsFoZ3OD0JFUX8WrMS+TPSEtC9RGX75qjh2VW7tKtmT/DPTo3j7SSqXU/hcwXmtuxN6tXlJ43zetJGWAjj88wk/laFBDlEXDLndBacLWXYhJY2W0q50jgCADCAqiwClNY4Q4F+POJRdlm4iOnS+VOrd2ln7vsZf1eD2Z0eBiCXcNZnpwS8JeTTPWaSqbvy2QIDbm6+9mzBAeyfGszeoz9GkZB+ctRg9rdyCfINlavV3abW2fyamq1Da+pNUTX15meuqm0DVWqbwyNOCWCSRrAOS8WsPfHRyDeD+jEbXXHSq63WwMJK/Zv7q/FZGszu1HQNkZD+89rXhC+Gi4hZ08VX+XSBAbcWgl6yVePUVrJdCQthHBvxKPubGQr0EyGfjhHRJhFqL5j7nf3dErfvZ8O4uouWFxwcFEYEc9QAZtmIRzmfZCXxSdt69061F8yB675p/7imwfyqk02os1MCpqbG8VyS1xv5fIG5rahKP3b93vaVGN5B1L2MjrAQxuGYR9jfDQljfauQkDfB0hkVtfjg85etE85ftgysrDMmAwB6+jTGEa0TYpDNowZzihSSni/T+SBlSlxa8J0u9/yV7k8luYNZLuH8Iy9D2NUq/9ADwAJzB53BTi+txl/OK9auAAAQtSzmbUZpBKtIKmb/IhWzimRi9m8Et98jV1ut3EOnTU9fum4dVllrHKtS255wxXlRxO/35Bju2olPcvPJHmdTVKV/auv32MfOXC5G9mVU5s/pNd7XllvoKVhgutCosgTmFGgqm5qtZD4K1sqHctbJhyHHpRGsfe54Q3HjPl1yU7MlvVxpfNwVc6fkQzmfp49B86IHski9V5Py4bWCpmarw5fEApR2ePvbvRVkzdD2RrDA3EPnN/rW77HXSqvxdzDc4eUSHdUsjWCdCBMxSuUS5ERYCEPpismX3aUz2FnnrlgklbXG6Jp60wvnr1hlJC61YJNGsHalxPE+HT6IfYTP7fleV10pqtKnrN/bnovhHQ4VTgFKO7d4SkBKwhCkjoxc3gYWmAdoVFn67z5imLm9Qr/IhTdG9dII1oFHHmJWPDuC+2W4iEnJ9qv30qKxsWsvmsdv/wGbUnfRMtHZzekeJCyEUZWdGvCKTMwmdM7QbY0qS/AbG1q3X2uzO3RvJiyEsb94cXAiGZm8DSww3dT5LV5YqZ9WU29KqmkwT+rhHscOQRG/puGPsL8JC2H+JhWz9rnTui46g51ZWo2POX3JnLD3GD4dAED0Mpl2aQRrx9R43pqEIeRsw7typ/atHZX6Nd14KZYSy31n9gT/z121S6engwXGCY0qizC/VLe4pt78jAazR1AQwRQ1gLkn6XHuLqmY9aOrR87eT5kSf6S4Sr+wpsE8kYj9n+8UHEjbtm5W0KJwEfN3ItsFN3NL8oq0pRrM3qer3wtQ2pncDIFcJmbfc3dR6K9ggemBq61W9ulLlpH7f8aTT10wj9JgdiJm+TrKGhbCONa/N+NCTGcvR8RokonZLt9w/26NKgty5jfL6D3HDNPOXbHEYngHIbtioojfjeGPsP8991n/T0ODGIQW1up6k3jB5+qddw5VQBE/TaIMWTP9KbTzfG51qeoJYIEhUHW96ZE9xwwKVattYk2DeRiJN0If5Jo0gnUqsh/zu/hoTnWokH7SVQtpdUVnsHMqa41j9hwzzKxpMMd1dkYIaLZlajxvRcZYdJ2QTydsP2udwR6w4HP1qpoG80y5hPNlSizvXZmYfZmo9n0NLDAk6byMamq2PpW/T5fR1GwdR3GcdrmE850ApR2cqeBvovIxa6PK0vvIr6aUNSXtywAAPX46FxxIq1s+XZAiE7MJHdJfpsSjqZw57y1ggXEBtc7G2F+NJ3ZeKvx02pSswQjbDdIpKOJXHx/NKR7cn1WdKENK+VyayxbVuk1nsDNKq/FJJYf1U89fsT7Xw+bwlFju+tkT/JdQ8W+B7g0WGAo0qizc3UcMr5z93SKvaTCPIWGRa4cEB9KqZir4+Y88xNwXPZClcfX5y07gku0V2Md1Fy3ODOX/HwFKO7c6Uzg1eiDL5YuDQV2DBYZijSoLX4PZJXuOGZ5StdriahrMjwIAunyS4QKGyL6M4/HRnCKpmH3c1TeLK2rxkTsq9G/VNJiTAQBsJ5vRTo3n5WUl8lfyuTSXrasMdQ0WGDej1tk4nb2amnpTVPFBw2wAwENUZaFqZnh1vSlqyVbNJ9fa7PHOtiGNYG1dPl0wwx0WLvdlsMC4uautVrSy1jjx0nVr+KHTpqdUatsoCmLYw0IY5XIJsi8tnve5qyb8VZzCn1q6ve0fGN4hceZ4AUo7nZsheMkdHtv7KlhgPNCtpRbGX1VbH9p7DJ9CxNMYB1jDQhh7Jz7J/XacDNniikmaRVX6yVu/x/7u5O6P9pRY7oLZE/w/5XNpNhLiQfcBC4wXaNHY/DeX6TI1mP2JcqXx6Z4ugO0Au3wo51P5MOQzhQQ5S/bJsgvUS8qVxoXO/PukEawt+XN7EbKoGNR9sMB4mautVv+rapukstY49PxlS1JNg3koQQPb7sce2ZfxXVo8+unIwez9RG7/cbfqepMkr0i7rKnZmtzdY8JCGAeyUwPek4nZR8nKBXUNFhgv16Kx+dVeNI8tV+KjypXG10lYSOtPggNpp2cq+B+kxvG+IvM8uUVtc4oPGtY+6HUpsdz/y0kNXElmFujeYIHxMY0qS79ypXFyZS0+4vwV62SylloAAFyaGs9bkzEWXU/WNrwVp/DYD7/Sft7VFjSRfRn7F0wOeEMmZrtkoXGoa7DA+LiyE3hs+Uk8q1xplJM0/saUEsvNzkzkbyCj0HT20JZs1WypaTBPv/Ujq3woZ0ney8Jcos8FOQ4WGOgPV1ut/qcvWWT7f8aTqxtMiRje4dTGdPciEtJPJMcg/0iLR0uIXkvl5lo92Ct7juHj5j7nv1ghgavNuQtYYKC/0BnstHNXLJI9xwwJZ36zTGxq/mOJTEJW8xMJ6U3JMciKtHi0mM+ltRPRJuS+YIGBHqi63hRVVWd8fnuFPoeoQiNAabXZqQHTFRLkFBHtQe4JFhg3VqbEnyz4TjdNKmar+/dmKEcNZpeGBjEoW2pBZ7AzNpbqZu2vxlM0mJ2QEcWjozhfLpzs/0ZoEAP2ZrwQLDBuTq2z+eUVaf9VftKYBW4+Bq59bgTvszAR47hCQs4atd1RXW+KXPdNe17dRcs4AACnh821zpvo/9y0MSjle3xDxIIFxkOUKfHYtV+3b1SpbY/e/plISK8d1Jd5bNzjyH/792acHtSPecXVuc5dtkQWHNBNO3rW9CKGd/Rkj2+7NIK1OTs1YFG4iHmNwIgQhWCB8SBqnY2VV6x9v1xpzO7i18Zbez/vzUri51OQjZNfqssuPmhY2sOmruXOFExVDEN+ICgaRCFYYDxQxSn8yQ+/0q7RYPZ7bu8qEtLLkmO438olnB2u7BGodbbAggPY3B2V+rcAAIFONtMhl3BWvDslMJfPpblsmQiIeLDAeLCN+9pT8kuxfz9o8h+K+DUmypDCmEHsvQlDkOMuzPdKfin2HgCgnxOHmzMT0blZSf6fkRANchFYYDxco8oSvLywbVfdRcvIbh7SlpnIXyqXcL5w1Y6R2ZvUOeUnjcu6+4g7LIRxaklaoCJ6IOs6+ekgMsEC4wXUOhut+KA+s/igYem9Ng7rQrM0gnVwagJv05CBrB+FfDqpi2VX15ti8oq0i5qarc/c6zUo4ncjLZ73YXIMN5/Kx/EQcWCB8SK1F8yC5YVtW5uarRMcPPR8Six3U05q4MckRfufjft0qfmluh0AANqdPw8OpB1ZNytoSriIeYnsDJDrwALjhYqq9Onr97Z/hOEdjq7nqx8dxdmclsD7J5mzkBtVlt55RdpVNQ3mFwEAxsxE9PWsJP8tZJ0Pog4sMF5KrbP5Z33SuqOp2ZrkzPFRA5jFbzzjv1QmZp8hPt1N237AJjzyEPO0TMy+QNY5IGrBAuPFdAY7UliJpRVW6v/u5N7QJmkEa+/UBN7ahGjkIAkRIS8HC4wPuNpqDV67u/2tcqVxlrP7ZYeFME5OfJL7j+QY7g4+lwY/NFC3wALjQ8pO4MNWl2h3XmuzOz2kXxrBKlk+XZDVR0CHj5ChB4IFxge9t02zeO8xfHnn++9kE/bRUZxPZifzl4SLmHCkLXRPsMD4qLITeEzOZs0XAICerFxnSonlZuakBm4lMBrkRWCB8WFqnU1YcACbv6NSPxcAgDrbTlgI49CsZP4bCdFw8Sjoz2CBgUDtBbNkfr76Sw1mH9yDZmyZifzMrCR+AYHRIA9HozoARL3ogSxlyZLgoSmx3GUAAJ2TzdDPXbYQulA45PlgDwb6k3OXLX027tP9/cc64ysOTE6snDWBvyBhCHKC/ISQJ4EFBupSi8bGXbJVk1/TYE6/z8vwlFHceTkvBG50YTTIg8ACA91XmRJ/orhKn13TYB4PAGADACxhIYwTjz3MPDz9KXRjuIh5juqMkPuCBQbqlhaNjV570fxQWAijOVzEJHVpB8h7wAIDQRBp4FMkCIJIAwsMBEGk+X8BAAD//7bXIWFXqeZ8AAAAAElFTkSuQmCC;" vertex="1" parent="1">
          <mxGeometry x="449" y="191" width="49" height="49" as="geometry" />
        </mxCell>
      </root>
    </mxGraphModel>
  </diagram>
  <diagram id="XBnl3S46jxf5ZgS_JnMV" name="Page-2">
    <mxGraphModel dx="1026" dy="580" grid="0" gridSize="10" guides="1" tooltips="1" connect="1" arrows="1" fold="1" page="0" pageScale="1" pageWidth="827" pageHeight="1169" math="0" shadow="0">
      <root>
        <mxCell id="0" />
        <mxCell id="1" parent="0" />
        <mxCell id="Lxm7ebyCSg8OoHPP7cmp-5" value="gitops infra repository" style="rounded=0;whiteSpace=wrap;html=1;" parent="1" vertex="1">
          <mxGeometry x="10" width="960" height="250" as="geometry" />
        </mxCell>
        <mxCell id="Ljya7Z9XezcNF-ToV2k5-7" style="edgeStyle=orthogonalEdgeStyle;rounded=0;orthogonalLoop=1;jettySize=auto;html=1;entryX=0.5;entryY=0;entryDx=0;entryDy=0;" parent="1" source="Ll89BH4u55GZEn9lvnPt-1" target="twysoS2wGpDTyJDuxvuL-1" edge="1">
          <mxGeometry relative="1" as="geometry" />
        </mxCell>
        <mxCell id="Ljya7Z9XezcNF-ToV2k5-8" style="edgeStyle=orthogonalEdgeStyle;rounded=0;orthogonalLoop=1;jettySize=auto;html=1;exitX=0.5;exitY=0;exitDx=0;exitDy=0;exitPerimeter=0;entryX=0.5;entryY=1;entryDx=0;entryDy=0;" parent="1" source="Ll89BH4u55GZEn9lvnPt-1" target="twysoS2wGpDTyJDuxvuL-2" edge="1">
          <mxGeometry relative="1" as="geometry" />
        </mxCell>
        <mxCell id="Ljya7Z9XezcNF-ToV2k5-12" style="edgeStyle=orthogonalEdgeStyle;rounded=0;orthogonalLoop=1;jettySize=auto;html=1;" parent="1" source="Ll89BH4u55GZEn9lvnPt-1" target="Ljya7Z9XezcNF-ToV2k5-1" edge="1">
          <mxGeometry relative="1" as="geometry" />
        </mxCell>
        <mxCell id="Ll89BH4u55GZEn9lvnPt-1" value="digikoo-stg" style="sketch=0;html=1;dashed=0;whitespace=wrap;fillColor=#2875E2;strokeColor=#ffffff;points=[[0.005,0.63,0],[0.1,0.2,0],[0.9,0.2,0],[0.5,0,0],[0.995,0.63,0],[0.72,0.99,0],[0.5,1,0],[0.28,0.99,0]];verticalLabelPosition=bottom;align=center;verticalAlign=top;shape=mxgraph.kubernetes.icon;prIcon=master" parent="1" vertex="1">
          <mxGeometry x="50" y="260" width="70" height="65" as="geometry" />
        </mxCell>
        <mxCell id="Ljya7Z9XezcNF-ToV2k5-10" style="edgeStyle=orthogonalEdgeStyle;rounded=0;orthogonalLoop=1;jettySize=auto;html=1;entryX=0.5;entryY=1;entryDx=0;entryDy=0;" parent="1" source="Ll89BH4u55GZEn9lvnPt-2" target="twysoS2wGpDTyJDuxvuL-3" edge="1">
          <mxGeometry relative="1" as="geometry" />
        </mxCell>
        <mxCell id="Ll89BH4u55GZEn9lvnPt-2" value="digikoo-prod&lt;br&gt;" style="sketch=0;html=1;dashed=0;whitespace=wrap;fillColor=#2875E2;strokeColor=#ffffff;points=[[0.005,0.63,0],[0.1,0.2,0],[0.9,0.2,0],[0.5,0,0],[0.995,0.63,0],[0.72,0.99,0],[0.5,1,0],[0.28,0.99,0]];verticalLabelPosition=bottom;align=center;verticalAlign=top;shape=mxgraph.kubernetes.icon;prIcon=master" parent="1" vertex="1">
          <mxGeometry x="850" y="270" width="70" height="65" as="geometry" />
        </mxCell>
        <mxCell id="twysoS2wGpDTyJDuxvuL-1" value="helm new version available" style="shape=image;html=1;verticalAlign=top;verticalLabelPosition=bottom;labelBackgroundColor=#ffffff;imageAspect=0;aspect=fixed;image=https://cdn3.iconfinder.com/data/icons/travelling-icon-set/800/helm-128.png" parent="1" vertex="1">
          <mxGeometry x="60" y="460" width="50" height="50" as="geometry" />
        </mxCell>
        <mxCell id="Ljya7Z9XezcNF-ToV2k5-9" style="edgeStyle=orthogonalEdgeStyle;rounded=0;orthogonalLoop=1;jettySize=auto;html=1;entryX=0;entryY=0.5;entryDx=0;entryDy=0;" parent="1" source="twysoS2wGpDTyJDuxvuL-2" target="Ljya7Z9XezcNF-ToV2k5-4" edge="1">
          <mxGeometry relative="1" as="geometry" />
        </mxCell>
        <mxCell id="twysoS2wGpDTyJDuxvuL-2" value="bundle/flex&lt;br&gt;with version range" style="rounded=1;whiteSpace=wrap;html=1;" parent="1" vertex="1">
          <mxGeometry x="25" y="120" width="120" height="60" as="geometry" />
        </mxCell>
        <mxCell id="Ljya7Z9XezcNF-ToV2k5-11" style="edgeStyle=orthogonalEdgeStyle;rounded=0;orthogonalLoop=1;jettySize=auto;html=1;entryX=1;entryY=0.5;entryDx=0;entryDy=0;" parent="1" source="twysoS2wGpDTyJDuxvuL-3" target="Ljya7Z9XezcNF-ToV2k5-4" edge="1">
          <mxGeometry relative="1" as="geometry" />
        </mxCell>
        <mxCell id="twysoS2wGpDTyJDuxvuL-3" value="bundle/stable&lt;br&gt;with pinned version" style="rounded=1;whiteSpace=wrap;html=1;" parent="1" vertex="1">
          <mxGeometry x="825" y="120" width="120" height="60" as="geometry" />
        </mxCell>
        <mxCell id="NYrLRWBJc13DCYSLUZhp-2" style="edgeStyle=orthogonalEdgeStyle;rounded=0;orthogonalLoop=1;jettySize=auto;html=1;exitX=1;exitY=0.5;exitDx=0;exitDy=0;entryX=0;entryY=0.5;entryDx=0;entryDy=0;" parent="1" source="Ljya7Z9XezcNF-ToV2k5-1" target="NYrLRWBJc13DCYSLUZhp-1" edge="1">
          <mxGeometry relative="1" as="geometry" />
        </mxCell>
        <mxCell id="Ljya7Z9XezcNF-ToV2k5-1" value="generic webhook dispatcher" style="rounded=1;whiteSpace=wrap;html=1;" parent="1" vertex="1">
          <mxGeometry x="145" y="262.5" width="120" height="60" as="geometry" />
        </mxCell>
        <mxCell id="Ljya7Z9XezcNF-ToV2k5-4" value="base" style="rounded=1;whiteSpace=wrap;html=1;" parent="1" vertex="1">
          <mxGeometry x="430" y="20" width="120" height="60" as="geometry" />
        </mxCell>
        <mxCell id="MpGuVXM7YibXFyfzb_43-2" style="edgeStyle=orthogonalEdgeStyle;rounded=0;orthogonalLoop=1;jettySize=auto;html=1;exitX=1;exitY=0.5;exitDx=0;exitDy=0;entryX=0;entryY=0.5;entryDx=0;entryDy=0;" parent="1" source="NYrLRWBJc13DCYSLUZhp-1" target="MpGuVXM7YibXFyfzb_43-1" edge="1">
          <mxGeometry relative="1" as="geometry" />
        </mxCell>
        <mxCell id="NYrLRWBJc13DCYSLUZhp-1" value="bitbucket pipeline" style="rounded=1;whiteSpace=wrap;html=1;" parent="1" vertex="1">
          <mxGeometry x="294" y="262.5" width="120" height="60" as="geometry" />
        </mxCell>
        <mxCell id="Lxm7ebyCSg8OoHPP7cmp-2" style="edgeStyle=orthogonalEdgeStyle;rounded=0;orthogonalLoop=1;jettySize=auto;html=1;" parent="1" source="MpGuVXM7YibXFyfzb_43-1" target="Lxm7ebyCSg8OoHPP7cmp-1" edge="1">
          <mxGeometry relative="1" as="geometry" />
        </mxCell>
        <mxCell id="MpGuVXM7YibXFyfzb_43-1" value="bump version in env-stable bundle&lt;br&gt;and create PR" style="rounded=1;whiteSpace=wrap;html=1;" parent="1" vertex="1">
          <mxGeometry x="440" y="262.5" width="180" height="60" as="geometry" />
        </mxCell>
        <mxCell id="Lxm7ebyCSg8OoHPP7cmp-3" style="edgeStyle=orthogonalEdgeStyle;rounded=0;orthogonalLoop=1;jettySize=auto;html=1;entryX=0;entryY=0.75;entryDx=0;entryDy=0;" parent="1" source="Lxm7ebyCSg8OoHPP7cmp-1" target="twysoS2wGpDTyJDuxvuL-3" edge="1">
          <mxGeometry relative="1" as="geometry" />
        </mxCell>
        <mxCell id="Lxm7ebyCSg8OoHPP7cmp-1" value="Approve PR (Manual)" style="rounded=1;whiteSpace=wrap;html=1;" parent="1" vertex="1">
          <mxGeometry x="650" y="262.5" width="150" height="60" as="geometry" />
        </mxCell>
        <mxCell id="Lxm7ebyCSg8OoHPP7cmp-4" value="new version promotion" style="text;html=1;strokeColor=none;fillColor=none;align=center;verticalAlign=middle;whiteSpace=wrap;rounded=0;" parent="1" vertex="1">
          <mxGeometry x="300" y="335" width="306" height="30" as="geometry" />
        </mxCell>
      </root>
    </mxGraphModel>
  </diagram>
  <diagram id="8YvoLLsY2ydAkLPw5r1w" name="Page-3">
    <mxGraphModel dx="1026" dy="580" grid="1" gridSize="10" guides="1" tooltips="1" connect="1" arrows="1" fold="1" page="1" pageScale="1" pageWidth="827" pageHeight="1169" math="0" shadow="0">
      <root>
        <mxCell id="0" />
        <mxCell id="1" parent="0" />
      </root>
    </mxGraphModel>
  </diagram>
</mxfile>
